<?xml version="1.0" standalone="no"?>
<!DOCTYPE svg PUBLIC "-//W3C//DTD SVG 1.1//EN" "http://www.w3.org/Graphics/SVG/1.1/DTD/svg11.dtd" >
<svg xmlns="http://www.w3.org/2000/svg">
<metadata>
Created by FontForge 20120731 at Thu Aug 18 17:11:19 2016
 By admin
</metadata>
<defs>
<font id="iconfont" horiz-adv-x="1024" >
  <font-face 
    font-family="iconfont"
    font-weight="500"
    font-stretch="normal"
    units-per-em="1024"
    panose-1="2 0 6 3 0 0 0 0 0 0"
    ascent="896"
    descent="-128"
    x-height="792"
    bbox="0 -224 1539 945"
    underline-thickness="50"
    underline-position="-100"
    unicode-range="U+0078-E626"
  />
<missing-glyph horiz-adv-x="374" 
d="M34 0v682h272v-682h-272zM68 34h204v614h-204v-614z" />
    <glyph glyph-name=".notdef" horiz-adv-x="374" 
d="M34 0v682h272v-682h-272zM68 34h204v614h-204v-614z" />
    <glyph glyph-name=".null" horiz-adv-x="0" 
 />
    <glyph glyph-name="nonmarkingreturn" horiz-adv-x="341" 
 />
    <glyph glyph-name="x" unicode="x" horiz-adv-x="1001" 
d="M281 543q-27 -1 -53 -1h-83q-18 0 -36.5 -6t-32.5 -18.5t-23 -32t-9 -45.5v-76h912v41q0 16 -0.5 30t-0.5 18q0 13 -5 29t-17 29.5t-31.5 22.5t-49.5 9h-133v-97h-438v97zM955 310v-52q0 -23 0.5 -52t0.5 -58t-10.5 -47.5t-26 -30t-33 -16t-31.5 -4.5q-14 -1 -29.5 -0.5
t-29.5 0.5h-32l-45 128h-439l-44 -128h-29h-34q-20 0 -45 1q-25 0 -41 9.5t-25.5 23t-13.5 29.5t-4 30v167h911zM163 247q-12 0 -21 -8.5t-9 -21.5t9 -21.5t21 -8.5q13 0 22 8.5t9 21.5t-9 21.5t-22 8.5zM316 123q-8 -26 -14 -48q-5 -19 -10.5 -37t-7.5 -25t-3 -15t1 -14.5
t9.5 -10.5t21.5 -4h37h67h81h80h64h36q23 0 34 12t2 38q-5 13 -9.5 30.5t-9.5 34.5q-5 19 -11 39h-368zM336 498v228q0 11 2.5 23t10 21.5t20.5 15.5t34 6h188q31 0 51.5 -14.5t20.5 -52.5v-227h-327z" />
    <glyph glyph-name="uniE600" unicode="&#xe600;" 
d="M743 310q-17 4 -21.5 10.5t-1.5 11.5l4 6q1 2 3.5 6.5t6 17t4.5 25t-4 28t-18 27.5q-31 26 -72 22.5t-77.5 -15.5t-36.5 -14q-10 -3 -17.5 -4.5t-11.5 0t-6 3.5t-1.5 8t1 10t3 13.5t3.5 15.5q0 16 -2.5 30t-12 29.5t-25 23.5t-44 7.5t-66.5 -13.5q-37 -13 -76.5 -39
t-69 -54t-54 -54t-36.5 -43l-13 -17q-22 -30 -37.5 -60.5t-21.5 -52.5t-8.5 -40t-2.5 -27l1 -9q6 -53 31.5 -94.5t61 -67.5t84 -44t93 -26.5t94.5 -12.5q81 -6 168 13.5t162 66.5t106 113q19 39 19 73t-12 55.5t-31 38t-36 24t-30 9.5zM408 -31q-118 -6 -201 46t-83 131
q0 78 82.5 134.5t201.5 61.5q120 6 202.5 -39.5t82.5 -122.5q0 -80 -84 -143t-201 -68zM377 273q-32 -4 -57.5 -15t-39.5 -26t-24 -32.5t-13.5 -33.5t-5 -30t-1.5 -22l1 -8v-5q0 -3 2.5 -12.5t6 -18t12.5 -18.5t22 -17q71 -35 134 -21t101 64q15 18 20 45.5t-2.5 55.5
t-24.5 51.5t-51.5 35.5t-79.5 7zM337 64.5q-22 -2.5 -37.5 9t-15.5 29.5q0 19 14.5 35t35.5 19q25 2 40.5 -10t15.5 -31t-15.5 -34t-37.5 -17.5zM430.5 144.5q-7.5 -5.5 -15.5 -5t-12 7.5q-5 6 -3 15.5t9 14.5q9 6 17 5t12 -7.5t2 -15.5t-9.5 -14.5zM820 375q9 0 16.5 6
t8.5 15v3q4 36 -1.5 63t-18 42t-28 25t-32 12.5t-30.5 3.5t-23 -1l-9 -1q-10 0 -18 -7.5t-8 -18.5t8 -18.5t18 -7.5q86 19 93 -55q1 -19 -2 -36q0 -10 7.5 -17.5t18.5 -7.5zM801 678q-55 13 -129 -1q-1 0 -2 -1t-2 -1h-1q-12 -4 -19.5 -14t-7.5 -23q0 -15 11 -26.5t26 -11.5
q21 3 34 8q6 1 19.5 2.5t36 -4.5t45 -14.5t46.5 -28.5t40 -47q29 -65 12 -126q-8 -18 -8 -36q0 -15 11 -24.5t27 -9.5t24.5 6t11.5 26q20 61 15.5 110.5t-21.5 86.5t-46.5 63.5t-60 42.5t-62.5 23z" />
    <glyph glyph-name="uniE601" unicode="&#xe601;" 
d="M273 455v-566h-189v566h189zM285 630q0 -42 -29.5 -70t-77.5 -28h-1q-47 0 -75.5 28t-28.5 70t29.5 69.5t77 27.5t76 -27.5t29.5 -69.5zM951 213v-324h-188v302q0 60 -23 94t-73 34q-36 0 -60 -19.5t-36 -48.5q-6 -17 -6 -46v-316h-188q1 228 1 369.5t-1 168.5v28h188
v-82h-2q12 18 24 31.5t32 29.5t49.5 25t65.5 9q98 0 157.5 -65t59.5 -190z" />
    <glyph glyph-name="uniE602" unicode="&#xe602;" 
d="M576 558q5 19 15 19q7 -1 9 -11l4 -21q4 -17 9 -6q4 7 4 21q-1 21 -10 29q-20 16 -35 0q-7 -8 -11 -20t-2 -21q4 -16 12 -1q3 4 5 11zM962 176q-7 30 -27.5 72t-39.5 68q-13 18 -15 23t1 22q8 45 -17 86q-12 19 -17 55q-11 100 -76 177.5t-163 109.5q-28 9 -78 10.5
t-81 -5.5q-109 -24 -179 -106.5t-79 -195.5q-3 -34 -6 -34q-5 0 -12.5 -14.5t-7.5 -23.5q0 -12 -7 -22q-6 -10 -5 -39l2 -30l-26 -34q-47 -62 -64.5 -125.5t-3.5 -118.5q6 -24 12 -30t18 -1q10 4 29.5 24.5t25.5 32.5q5 12 9 8q2 -1 2 -4q0 -7 14.5 -36t28.5 -48
q5 -7 9 -13.5t6.5 -10t1.5 -3.5q0 -2 -17 -10q-48 -25 -49 -85q-1 -20 8 -32q9 -13 12 -19q11 -19 33 -29t63 -16q30 -4 59.5 -2t89.5 14q61 12 99 12t101 -12q175 -35 231 24q42 45 27 81q-6 14 -3 15q1 2 -5 15q-13 24 -48 39l-15 6l22 32q21 32 33 61l11 30l15 -23
q12 -19 26.5 -34t23.5 -18q13 -4 22.5 19.5t12.5 65.5q2 38 -7 72zM553 618q11 24 32.5 32.5t39.5 -3.5q30 -19 34 -70q3 -46 -15.5 -75.5t-45.5 -27.5t-46 38q-10 19 -9.5 52.5t10.5 53.5zM397 640q10 9 27.5 10t28.5 -7q31 -20 34 -73q3 -52 -22 -79q-24 -27 -52 -15
q-45 19 -45 88q0 52 29 76zM447 452q33 6 91 4t92 -10q40 -10 75.5 -28.5t35.5 -29.5q0 -6 -20.5 -19t-37.5 -18q-9 -3 -9 0t13 20q14 19 4 14q-6 -2 -20 -13q-68 -51 -145 -52t-144 49q-22 16 -23 14q-3 -2 7 -17q8 -15 6 -17t-21.5 6.5t-30.5 16.5q-12 8 -12 17
q0 12 45 32.5t94 30.5zM600 282q-11 -3 -35 -3h-22l24 3q24 3 35 3h6q2 0 -1 -1q-2 -1 -7 -2zM541 277q-3 -3 -22.5 -3t-50.5 3t-52 7q-65 12 -77 23q-8 7 13 0q6 -1 14 -4q60 -21 137 -21q19 0 28.5 -1.5t9.5 -3.5zM305 -180q-51 0 -87 13t-46 34q-3 8 -2 13t8 18
q7 14 7.5 17.5t-4.5 4.5q-15 5 13 25q28 19 41 3q6 -7 20 -16q15 -10 31 -24q12 -12 46 -40q29 -24 29 -33t-10 -12t-46 -3zM826 -51q24 -12 24 -25q0 -6 -10 -6q-6 0 -1 -6l2 -2q8 -8 10 -28q1 -14 -1 -18.5t-12 -14.5q-32 -27 -112 -26q-51 0 -57 6q-12 12 30 36
q49 28 56 42q4 8 17 12q13 3 24 20q10 13 14.5 14.5t15.5 -4.5zM813 84q-25 -95 -102 -156t-178 -66q-141 -7 -237 89q-74 74 -84 174q-2 24 2 57t11 50l5 14l17 -11q6 -3 14 -8t9 -6q4 -2 -3 -56q-8 -49 -6 -72.5t15 -37.5q24 -27 77 -28q42 -1 51.5 12.5t9.5 73.5v52
l34 -4q93 -10 178.5 8t151.5 62q22 15 25 11q11 -11 14.5 -68t-4.5 -90zM435 529q10 -6 16 -5.5t14 9.5q11 10 11 29q0 23 -15 34t-28 -3q-12 -13 -11 -34t13 -30zM457 579q4 -1 4 -11q0 -9 -6.5 -11t-9.5 5q-2 6 2.5 12.5t9.5 4.5z" />
    <glyph glyph-name="uniE603" unicode="&#xe603;" 
d="M1 287q0 -165 95.5 -297.5t246.5 -184.5q6 -2 10 -2t6.5 1.5t4 3t2 5t0.5 5.5v6v6v88q-37 -4 -66 0.5t-45 14t-28.5 23.5t-17.5 25.5t-9 23.5t-6 15q-8 14 -26 27t-27 20.5t-2 14.5q50 26 113 -66q34 -51 118 -30q10 40 40 70q-115 20 -171 85t-56 158q0 87 55 150
q-22 66 5 137q30 3 66 -10.5t50 -23t25 -18.5q58 16 129 16q70 0 129 -16q13 10 28.5 19.5t49 21.5t61.5 9q26 -71 6 -134q56 -64 56 -152q0 -92 -56.5 -157t-172.5 -86q44 -42 44 -104v-128v-3l2 -9q0 -3 4 -6t11 -3q154 52 251 185t97 300q0 104 -40.5 198.5t-109 162.5
t-163 108.5t-198.5 40.5t-198.5 -40t-163 -108.5t-109 -163t-40.5 -198.5z" />
    <glyph glyph-name="uniE604" unicode="&#xe604;" 
d="M757 372l-300 -215q14 -2 39 -5t103.5 -7.5t159.5 -3.5l-8 36l258 224q8 6 5 16t-13 11l-341 29l-134 315q-4 10 -14 10t-14 -10l-134 -315l-341 -29q-10 -1 -13 -11t5 -16l258 -224l-77 -334q-3 -10 5.5 -16t17.5 -1l293 177l293 -177q4 -2 8 -2q5 0 9 3q9 6 6 16
l-61 264q12 6 25.5 14.5t21.5 14.5l8 6q-2 -1 -7 -3t-25 -7t-45 -9.5t-69 -9t-95.5 -6.5t-126 -0.5t-158.5 7.5l298 216q-1 2 -13.5 5.5t-109 12t-263.5 13.5q-3 1 2 2q50 15 191 25q210 15 356 -16z" />
    <glyph glyph-name="uniE605" unicode="&#xe605;" 
d="M953 725l-4 4q-70 71 -170.5 71t-171.5 -71l-218 -218q-71 -70 -71 -170.5t71 -171.5l4 -4q11 -11 25 -22l80 80q-15 9 -27 20l-4 4q-38 39 -38 93t38 93l219 218q38 38 92.5 38t92.5 -38l4 -4q38 -38 38 -92.5t-38 -92.5l-99 -99q26 -63 25 -133l152 153q71 71 71 171.5
t-71 170.5zM631 411q-11 11 -25 22l-80 -80q15 -9 27 -20l4 -4q38 -39 38 -93t-38 -93l-219 -218q-38 -38 -92.5 -38t-92.5 38l-4 4q-38 38 -38 92.5t38 92.5l99 99q-26 63 -25 133l-152 -153q-71 -71 -71 -171.5t71 -170.5l4 -4q70 -71 170.5 -71t171.5 71l218 218
q71 70 71 170.5t-71 171.5z" />
    <glyph glyph-name="uniE606" unicode="&#xe606;" horiz-adv-x="1000" 
d="M923 553q-2 10 -2 16q-102 3 -167 28q-17 6 -33.5 17.5t-25.5 19.5l-8 8q0 18 -13 30.5t-31 12.5h-262q-18 0 -31 -12.5t-13 -30.5q-27 -30 -63 -44q-28 -11 -73 -18.5t-68.5 -9t-30.5 -1.5q0 -7 -2 -18q-24 -11 -24 -38v-496q0 -17 12.5 -29.5t30.5 -12.5h787
q18 0 31 12.5t13 29.5v496q0 29 -27 40zM512.5 83q-90.5 0 -154.5 62.5t-64 150.5t64 150.5t154.5 62.5t154.5 -62.5t64 -150.5t-64 -150.5t-154.5 -62.5zM512.5 424q-54.5 0 -93 -37.5t-38.5 -90.5t38.5 -90.5t93 -37.5t92.5 37.5t38 90.5t-38 90.5t-92.5 37.5z" />
    <glyph glyph-name="uniE607" unicode="&#xe607;" 
d="M852 -200h-603v829h264v-344l133 101l131 -101v344h150v-754q0 -31 -22 -53t-53 -22zM646 436l-95 -76v306h188v-306zM136 704v-38q0 -15 11 -26t27 -11h38v-829h-38q-31 0 -53 22t-22 53v829q0 31 22 53.5t53 22.5h678q43 0 65 -38h-743q-16 0 -27 -11t-11 -27z" />
    <glyph glyph-name="uniE608" unicode="&#xe608;" 
d="M934 -213h-700q-13 0 -26 6t-23.5 16t-19.5 21.5t-16 23.5t-12 21.5t-7 15.5l-3 6v73l35 -2q21 0 36 8.5t22 18t11 23t4 18.5v7q0 21 -7.5 36.5t-17.5 22.5t-20.5 11.5t-17.5 4.5l-8 1h-36v144h35q19 0 33.5 7.5t22 18t11.5 20.5t5 18l1 7q0 22 -7.5 38t-18 23.5
t-21.5 11.5t-18 4l-8 1h-34l-2 144l34 2q22 0 37 7.5t22 18.5t11 21.5t4 18.5v7q0 19 -7 33.5t-18 21.5t-21.5 11.5t-17.5 6.5l-8 1h-36v71q0 15 10.5 25.5t25.5 10.5h659q15 0 26 -10.5t11 -25.5l73 -3q13 0 22.5 -9t11.5 -18l3 -9v-915q0 -13 -8.5 -21.5t-17.5 -10.5z
M786 556h-476v-293h476v293zM897 730l-38 12v-808q0 -16 -11 -26.5t-26 -10.5l-623 1q0 -11 9.5 -20.5t18.5 -13.5l10 -4h622q17 0 26.5 9t10.5 17l1 9v835zM401 483h293q8 0 13 -5.5t5 -13t-5 -13t-13 -5.5h-293q-7 0 -12.5 5.5t-5.5 13t5.5 13t12.5 5.5zM401 373h293
q8 0 13 -5.5t5 -13t-5 -13t-13 -5.5h-293q-7 0 -12.5 5.5t-5.5 13t5.5 13t12.5 5.5zM200 629q0 -15 -11 -25.5t-26 -10.5h-73q-15 0 -26 10.5t-11 25.5t11 26t26 11h73q15 0 26 -11t11 -26zM90 373h73q15 0 26 -10.5t11 -26t-11 -26t-26 -10.5h-73q-15 0 -26 10.5t-11 26
t11 26t26 10.5zM90 80h73q15 0 26 -10.5t11 -26t-11 -26t-26 -10.5h-73q-15 0 -26 10.5t-11 26t11 26t26 10.5z" />
    <glyph glyph-name="uniE609" unicode="&#xe609;" 
d="M672 674q49 1 81.5 -13.5t63.5 -43.5q38 3 94 31q17 10 23 13q-21 -57 -59 -86q-17 -13 -20 -15q17 0 34.5 4.5t39.5 13t29 10.5v-1q-27 -43 -62 -71q-5 -4 -15.5 -12t-12.5 -11q0 -75 -9 -118q-35 -155 -125.5 -258t-234.5 -147q-54 -17 -125.5 -21t-133.5 10
q-63 16 -108 35q-28 12 -52 27q-10 6 -16 10l28 -3q28 -2 30 1q8 1 26 2t27 3q67 15 110 40q3 2 12 7t14.5 8t12.5 8t11 10q-26 -1 -55 9q-82 29 -116 118q68 -8 82 3q-24 2 -61 25q-86 54 -86 157q6 -3 19 -9t38 -11q20 -4 25 -2q-5 5 -17 14t-17 15q-64 80 -41 167
q5 22 19 48q1 0 1 -1q2 -4 9 -11l8 -8q21 -26 55 -52q52 -41 103 -66t121 -43q43 -10 82 -10q-5 19 -4.5 43t5.5 43q25 89 104 123q17 7 41 12q8 1 22 3z" />
    <glyph glyph-name="uniE60A" unicode="&#xe60a;" 
d="M512 181l416 347q-1 0 -3.5 0.5t-3.5 0.5h-818q-1 0 -3.5 -0.5t-3.5 -0.5zM958 492q0 4 -2 11l-295 -246l295 -295q2 7 2 9v521zM68 503q-2 -7 -2 -11v-521q0 -1 2 -9l295 295zM633 234l-109 -91q-5 -4 -12 -4t-12 4l-108 90l-298 -297q7 -2 9 -2h818q2 0 9 2z" />
    <glyph glyph-name="uniE60B" unicode="&#xe60b;" 
d="M693 465q15 0 35 -2q-23 109 -127.5 181.5t-238.5 72.5q-98 0 -181 -40.5t-132 -111.5t-49 -156q0 -143 145 -245l-36 -109l127 64q6 -2 25 -5.5t27 -5t22.5 -4t26.5 -3t25 -0.5q16 0 34 1q-11 38 -11 76q0 119 89.5 203t218.5 84zM498 563q21 0 33.5 -12.5t12.5 -33
t-12.5 -33t-33.5 -12.5t-37.5 13t-16.5 32.5t16.5 32.5t37.5 13zM245 472q-22 0 -38.5 13t-16.5 32.5t16.5 32.5t38.5 13q20 0 32.5 -12.5t12.5 -33t-12.5 -33t-32.5 -12.5zM1024 182q0 71 -43 132t-113.5 96t-151.5 35q-129 0 -218.5 -77t-89.5 -186t89.5 -186t218.5 -77
q37 0 109 18l99 -54l-27 90q127 96 127 209zM616 228q-13 0 -24.5 11t-11.5 24.5t11.5 25t24.5 11.5q20 0 33 -11t13 -25.5t-13 -25t-33 -10.5zM815 228q-13 0 -24.5 11t-11.5 24.5t11.5 25t24.5 11.5q20 0 33 -11t13 -25.5t-13 -25t-33 -10.5z" />
    <glyph glyph-name="uniE60C" unicode="&#xe60c;" horiz-adv-x="1000" 
d="M845 -123h-63q-13 31 -42 50.5t-64.5 19.5t-64 -19.5t-42.5 -50.5h-136q-14 31 -43 50.5t-64 19.5t-64 -19.5t-43 -50.5h-39q-46 0 -78 32.5t-32 77.5v665q0 46 32 78t78 32h39q14 -31 43 -50t64 -19t64 19t43 50h136q14 -31 42.5 -50t64 -19t64.5 19t42 50h63
q45 0 77.5 -32t32.5 -78v-665q0 -45 -32.5 -77.5t-77.5 -32.5zM657 573q-28 -2 -42 -22l-103 -146l-103 146q-14 20 -41 22q-48 -5 -53 -52q0 -17 11 -31l89 -124h-58q-31 -2 -34 -30q3 -28 34 -30h103v-47h-103q-31 -3 -34 -31q3 -27 34 -30h103v-85q2 -47 52 -47t53 47v85
h103q31 3 34 30q-3 28 -34 31h-103v47h103q31 2 34 30q-3 28 -34 30h-58l89 124q11 14 11 31q-6 47 -53 52z" />
    <glyph glyph-name="uniE60D" unicode="&#xe60d;" 
d="M225 384h-130q-8 0 -14 -6t-6 -15v-364q0 -8 6 -14t14 -6h130q8 0 14 6t6 14v364q0 9 -6 15t-14 6zM460 683h-130q-9 0 -14.5 -6.5t-5.5 -15.5v-661q0 -9 5.5 -15t14.5 -6h130q8 0 14 6t6 15v661q0 9 -6 15.5t-14 6.5zM694 533h-130q-8 0 -14 -6.5t-6 -14.5v-512
q0 -9 6 -15t14 -6h130q9 0 14.5 6t5.5 15v512q0 8 -5.5 14.5t-14.5 6.5zM929 789h-130q-9 0 -14.5 -6t-5.5 -15v-768q0 -9 5.5 -15t14.5 -6h130q8 0 14 6t6 15v768q0 9 -6 15t-14 6z" />
    <glyph glyph-name="uniE60E" unicode="&#xe60e;" 
d="M962 221l-95 -95q-11 -10 -26 -10t-26 10l-303 304l-303 -304q-11 -10 -26 -10t-26 10l-95 95q-11 11 -11 26t11 26l424 423q11 11 26 11t26 -11l424 -423q11 -11 11 -26t-11 -26z" />
    <glyph glyph-name="uniE60F" unicode="&#xe60f;" 
d="M97 107q33 -30 73.5 -49.5t79.5 -19.5q35 0 60.5 16t25.5 49q0 15 -6.5 26.5t-21 20.5t-27 14.5t-37 14.5t-39.5 16q-33 14 -56 28t-44.5 34.5t-32 48.5t-10.5 64q0 92 65 138.5t169 46.5q120 0 200 -52v-15l-51 -99q-58 44 -136 44q-35 0 -55 -14.5t-20 -41.5
q0 -11 5 -20.5t11.5 -16t20.5 -13.5t24 -11t31 -11.5t33 -11.5q79 -30 116 -68.5t37 -110.5q0 -95 -66.5 -143t-176.5 -48q-127 0 -225 74v15zM665 -76q0 121 4 480q-34 -1 -80 -1l1 129q45 0 78 -1q0 3 -1.5 58t-1.5 57q0 102 53 150t141 48q78 0 145 -28v-20l-37 -102
q-32 18 -64 18q-29 0 -44 -18.5t-15 -66.5v-55l1 -41q39 1 122 1l-2 -129q-83 0 -121 1q3 -120 3 -480h-182z" />
    <glyph glyph-name="uniE610" unicode="&#xe610;" 
d="M512 896q-138 0 -256 -69t-187 -187t-69 -256t69 -256t187 -187t256 -69v384h-128v128h128v96q0 67 46.5 113.5t113.5 46.5h160v-128h-160q-14 0 -23 -9t-9 -23v-96h176l-32 -128h-144v-368q168 44 276 181t108 315q0 138 -69 256t-187 187t-256 69z" />
    <glyph glyph-name="uniE611" unicode="&#xe611;" horiz-adv-x="1171" 
d="M1029 371q63 -26 102 -83t39 -127q0 -94 -67.5 -160.5t-162.5 -66.5q-2 0 -6.5 -2.5t-6.5 -2.5h-695q-97 5 -164.5 71t-67.5 161q0 62 31.5 115.5t83.5 84.5q-6 22 -6 46q0 66 46.5 112.5t113.5 46.5q54 0 98 -33q43 88 127.5 141.5t186.5 53.5q95 0 175 -46t126.5 -125
t46.5 -172q0 -3 3 -10t3 -10zM274 213q0 -70 48 -110.5t119 -40.5q78 0 137 56q-9 12 -27 32.5t-25 28.5q-39 -37 -83 -37q-31 0 -53 19.5t-22 49.5q0 31 22 50.5t52 19.5q25 0 48.5 -12t42 -31.5t37 -43t39.5 -47t44 -43t55.5 -31.5t69.5 -12q69 0 116.5 41t47.5 109
q0 69 -48 109.5t-118 40.5q-82 0 -138 -55q8 -9 17 -19.5t20 -23t16 -19.5q38 37 82 37q29 0 52 -19t23 -48q0 -33 -21 -52.5t-54 -19.5q-24 0 -47 12t-41.5 31.5t-37 42.5t-39.5 46.5t-44.5 43t-55 31.5t-67.5 12q-70 0 -118.5 -40t-48.5 -108z" />
    <glyph glyph-name="uniE612" unicode="&#xe612;" 
d="M791 -10h-599v257h-86v-343h771v343h-86v-257zM286 270l18 85l420 -89l-18 -83zM342 471l36 78l388 -182l-36 -77zM449 662l55 65l329 -274l-55 -66zM662 864l256 -343l-69 -52l-256 344zM277 76v85h429v-85h-429z" />
    <glyph glyph-name="uniE613" unicode="&#xe613;" horiz-adv-x="1025" 
d="M512 896q-139 0 -257 -68.5t-186.5 -186.5t-68.5 -257t68.5 -257t186.5 -186.5t257 -68.5t257 68.5t186.5 186.5t68.5 257q0 212 -150 362t-362 150zM73 384q0 67 20 131q0 -1 1 -3.5t2 -3.5t1 -2q7 -6 12.5 -9.5t7.5 -4.5t3 -3.5t1 -6.5q0 -38 3.5 -65t13.5 -52.5
t30 -39t51 -14.5l4 -17q4 -18 15.5 -36.5t29.5 -19.5q11 -1 36.5 2t38.5 3.5t23 -5.5q1 -1 1 -12.5t-0.5 -37.5t-0.5 -48q0 -24 30.5 -54.5t60.5 -48.5l31 -19q-1 -8 1.5 -19.5t4 -17t6.5 -20t5 -15.5q-118 1 -217.5 60t-157 159.5t-57.5 218.5zM617 -42q17 89 42 108
q25 21 26.5 44t-14 38t-36.5 16q-9 1 -15 8t-8.5 16t-9 16.5t-16.5 8.5q-13 1 -32.5 14.5t-30.5 24t-35 34.5q-14 14 -30 19t-43 5q-10 0 -30.5 -4.5t-31 -4.5t-10.5 9q0 27 -6 47.5t-12 32.5t-7 18q-1 12 10 18.5t39 5.5q11 0 12 24.5t12 24.5q19 0 55 -8.5t43 -16.5
q2 -2 5 -8t7.5 -17.5t7 -17.5t7.5 -15.5t8.5 -13t8.5 -5.5t9.5 3.5t9.5 17.5t10 32q3 12 -2 40.5t2 32.5q10 13 23.5 20.5t24 9.5t18 6t7.5 12q0 21 -5.5 43t-19.5 30q-12 8 -48 0q-61 -13 -91 3q-16 8 -7 22q7 9 31 17t44 20.5t23 34.5q2 15 12 47.5t12 44.5
q115 -19 205.5 -93.5t132.5 -183.5q-15 -8 -20 -10q-52 -38 -76 -76.5t-21.5 -70t15 -55t33.5 -42.5q12 -10 20 -22t15.5 -27t13.5 -24l10 -9q-42 -90 -120.5 -155t-176.5 -89z" />
    <glyph glyph-name="uniE614" unicode="&#xe614;" 
d="M375 117h565l-125 88h-440h-21l-18 13l-90 63h-104zM940 272l-125 88h-440h-21l-18 13l-90 64h-104l233 -165h565zM940 427l-233 165h-565l233 -165h565z" />
    <glyph glyph-name="uniE615" unicode="&#xe615;" 
d="M63 702v-528h53v528h-53zM459 702v-528h53v528h-53zM776 702v-633h53v633h-53zM169 702v-633h26v633h-26zM380 702v-528h27v528h-27zM697 702v-528h26v528h-26zM248 702v-528h79v528h-79zM565 702v-528h79v528h-79zM882 702v-528h79v528h-79z" />
    <glyph glyph-name="uniE616" unicode="&#xe616;" 
d="M512 893q-104 0 -198.5 -40.5t-163 -109t-108.5 -163t-40 -198.5t40 -198.5t108.5 -162.5t163 -108.5t198.5 -40.5t198.5 40.5t162.5 108.5t108.5 162.5t40.5 198.5t-40.5 198.5t-108.5 163t-162.5 109t-198.5 40.5zM412 459l-193 -79l193 -80v-45l-243 104v42l243 103
v-45zM477 192h-36l106 380h36zM855 359l-244 -104v45l193 80l-193 79v45l244 -103v-42z" />
    <glyph glyph-name="uniE617" unicode="&#xe617;" 
d="M247 569q-9 9 -22 9t-22 -9l-194 -194q-9 -9 -9 -22t9 -22l194 -194q9 -9 22 -9t22 9t9 22t-9 22l-173 172l173 172q9 9 9 22t-9 22zM954 375l-194 194q-9 9 -21.5 9t-21.5 -9t-9 -22t9 -22l172 -172l-172 -172q-9 -9 -9 -22t9 -22t21.5 -9t21.5 9l194 194q9 9 9 22
t-9 22zM689.5 763.5q-11.5 6.5 -24 3t-19.5 -14.5l-384 -767q-7 -12 -3.5 -25t15 -19.5t24.5 -3t19 15.5l384 766q7 12 3.5 25t-15 19.5z" />
    <glyph glyph-name="uniE618" unicode="&#xe618;" horiz-adv-x="1139" 
d="M8 430h517v515h-517v-515zM107 846h319v-317h-319v317zM213 740h107v-105h-107v105zM8 -181h517v515h-517v-515zM107 236h319v-318h-319v318zM213 130h107v-106h-107v106zM1134 945h-517v-515h517v515zM1035 529h-319v317h319v-317zM822 740h107v-105h-107v105zM930 334
h204v-310h-204v310zM822 -75h107v-106h-107v106zM833 334h-216v-515h109v410h107v105zM1028 -75h106v-106h-106v106z" />
    <glyph glyph-name="uniE619" unicode="&#xe619;" 
d="M859 -82h-47v916h47q20 0 34 -13.5t14 -33.5v-822q0 -20 -14 -33.5t-34 -13.5zM212 -35v47h79q39 0 67 28t28 67t-28 67t-67 28h-79v79h79q39 0 67 28t28 67t-28 67t-67 28h-79v79h79q39 0 67 27.5t28 67t-28 67t-67 27.5h-79v48q0 20 14 33.5t33 13.5h506v-916h-506
q-19 0 -33 13.5t-14 33.5zM338 644.5q0 -19.5 -13.5 -33.5t-33.5 -14h-126q-20 0 -34 14t-14 33.5t14 33.5t34 14h126q20 0 33.5 -14t13.5 -33.5zM165 423h126q20 0 33.5 -13.5t13.5 -33.5t-13.5 -33.5t-33.5 -13.5h-126q-20 0 -34 13.5t-14 33.5t14 33.5t34 13.5zM165 155
h126q20 0 33.5 -14t13.5 -33.5t-13.5 -33.5t-33.5 -14h-126q-20 0 -34 14t-14 33.5t14 33.5t34 14z" />
    <glyph glyph-name="uniE61A" unicode="&#xe61a;" 
d="M902 832h-718v-120h-88q-12 0 -22 -8t-10 -20v-60q0 -12 10 -21.5t22 -9.5h88v-60h-88q-12 0 -22 -8t-10 -20v-60q0 -12 10 -21.5t22 -9.5h88v-60h-88q-12 0 -22 -8t-10 -20v-60q0 -12 10 -21.5t22 -9.5h88v-60h-88q-12 0 -22 -8t-10 -20v-60q0 -12 10 -21.5t22 -9.5h88
v-120h718q24 0 41 18.5t17 43.5v776q0 24 -16.5 41t-41.5 17zM363 -4h-120v60h32q12 0 20 9.5t8 21.5v60q0 12 -7.5 20t-20.5 8h-32v60h32q12 0 20 9.5t8 21.5v60q0 12 -7.5 20t-20.5 8h-32v60h32q12 0 20 9.5t8 21.5v60q0 12 -7.5 20t-20.5 8h-32v60h32q12 0 20 9.5t8 21.5
v60q0 13 -7.5 20.5t-20.5 7.5h-32v60h120v-776z" />
    <glyph glyph-name="uniE61B" unicode="&#xe61b;" 
d="M914.5 740q-44.5 0 -76 -31.5t-31.5 -75.5q0 -50 38 -82l-101 -223q-21 10 -44 10q-30 0 -55 -15l-202 202q15 25 15 54q0 45 -31.5 76t-75.5 31t-75.5 -31t-31.5 -76t32 -77l-117 -176q-23 12 -49 12q-45 0 -76.5 -31.5t-31.5 -76t31.5 -76t76 -31.5t76 31.5t31.5 75.5
q0 33 -18 59l124 187q14 -4 28 -4q29 0 55 15l201 -202q-14 -25 -14 -55q0 -44 31 -75.5t75.5 -31.5t76 31.5t31.5 75.5q0 35 -20 63l107 235q10 -3 20 -3q45 0 76.5 31.5t31.5 76t-31.5 76t-76 31.5z" />
    <glyph glyph-name="uniE61C" unicode="&#xe61c;" 
d="M807 653h-147v49q0 20 -14 34.5t-35 14.5h-196q-20 0 -34.5 -14.5t-14.5 -34.5v-49h-147q-41 0 -69.5 -29t-28.5 -69v-123h785v123q0 40 -29 69t-70 29zM611 653h-196v24q0 11 7 18t18 7h147q10 0 17 -7t7 -18v-24zM611 653zM513 309q20 0 34.5 14.5t14.5 34.5
q0 13 -7 25h-84q-7 -12 -7 -25q0 -20 14.5 -34.5t34.5 -14.5zM513 309zM608 383q3 -13 3 -25q0 -40 -28.5 -69t-69.5 -29t-69.5 29t-28.5 69q0 12 3 25h-297v-270q0 -40 28.5 -69t69.5 -29h588q41 0 70 29t29 69v270h-298zM608 383z" />
    <glyph glyph-name="uniE61D" unicode="&#xe61d;" 
d="M851 896h-563q-58 0 -96 -38.5t-38 -95.5v-20q-48 -9 -78.5 -48.5t-30.5 -91.5q0 -68 51 -109q-51 -41 -51 -109t51 -109q-51 -41 -51 -109q0 -51 29.5 -88.5t79.5 -51.5v-20q0 -54 38.5 -94t95.5 -40h563q54 0 94.5 39t40.5 95v756q-5 57 -43.5 95.5t-91.5 38.5zM154 96
q-20 10 -32.5 28.5t-12.5 42t12.5 42t32.5 28.5v-141zM154 314q-20 10 -32.5 28.5t-12.5 41.5t12.5 41.5t32.5 28.5v-140zM154 538q-19 4 -32 24t-13 40q0 23 12.5 41.5t32.5 28.5v-134zM813 102h-461v64h461v-64zM813 333h-461v64h461v-64zM813 602h-461v64h461v-64z" />
    <glyph glyph-name="uniE61E" unicode="&#xe61e;" horiz-adv-x="1600" 
d="M59 609q0 44 14 64q14 18 64 18h206v-819h-88q-40 0 -70 1l-47 1q-44 -2 -61.5 14.5t-17.5 62.5v236q0 18 5.5 27t23.5 12q6 0 17 5q12 5 23 16t19 27q8 18 8 42q0 38 -20 59q-20 22 -43 25q-17 3 -25 10.5t-8 25.5v173zM192 765v43q0 32 25 60t54 28h221v-131h-300z
M1501 409q-13 -3 -19 -14q-5 -11 -5 -23t5 -25q6 -13 19 -18t20 -19q7 -15 8 -32q1 -16 -4 -31q-5 -14 -14 -21q-32 -20 -32 -44q0 -25 32 -49q6 -5 12 -18q5 -14 5 -27t-6 -22q-7 -10 -23 -10h-86q-10 0 -11 1q0 2 3 6t8 9q4 5 8 12q8 23 0 39q-8 17 -28 28q-13 7 -18 20
q-6 14 -5 29t6 26q5 12 14 17q13 5 19 18q7 12 7 27q0 14 -5 28q-5 12 -15 17q-13 7 -20 19q-7 13 -7 30t7 32q6 16 20 25q10 6 16 18q6 10 8 24q1 12 -5 26q-6 12 -20 20q-16 9 -23 24q-8 16 -8 32t8 31q7 15 20 23q27 15 29 40q3 26 -4 47q-5 17 -19 30t-37 13h-771v129
h905q10 0 18 -8q9 -9 11.5 -20t-1.5 -24q-4 -12 -16 -20q-10 -9 -17 -21q-6 -12 -8 -28q0 -13 4 -27q5 -14 18 -21q18 -10 26 -27q9 -17 9 -34t-8 -32q-9 -15 -25 -21q-18 -7 -26 -19t-9 -27t6 -29q8 -14 24 -24q16 -9 23 -26q7 -16 6 -33q0 -16 -8 -30q-7 -14 -21 -16v0z
M1292 434q-19 -5 -30 -19q-10 -14 -11 -29q-1 -14 8 -29t27 -21q16 -7 24 -20t9 -28q0 -14 -6 -27.5t-19 -19.5q-41 -20 -42 -48q-2 -27 30 -44q15 -7 24 -21q9 -13 9 -29q1 -16 -5 -28t-21 -17q-19 -5 -30 -18q-10 -13 -11 -28t8 -30q9 -14 28 -24q13 -7 19 -21
q5 -14 4 -27q-2 -13 -9 -23q-7 -11 -21 -11h-839v819h849q13 0 20 -10q7 -11 8 -24t-5 -26q-7 -14 -21 -18q-15 -5 -24 -17q-8 -11 -10 -25q-1 -14 6 -27q9 -13 28 -20q15 -7 23 -19q9 -15 10 -27q1 -14 -7 -27q-7 -12 -23 -17v0zM905 324q-8 0 -17 2q-8 2 -4 10
q12 17 15 23q15 21 31 41q4 5 15 20t16 22q16 22 18 25q8 13 -10 31q-3 3 -13 10q-9 6 -17 10q-13 4 -19 1q-6 -4 -13 -15q-11 -16 -16 -23t-28 -40q-11 -18 -26 -39q-13 -17 -14 -20q-3 -7 -12 -5.5t-12 8.5q-3 5 -14 19q-15 17 -28 35q-9 12 -28 37q-13 16 -18 24
q-15 27 -31 18q-11 -7 -20 -14q-8 -7 -17 -13q-16 -11 -5 -29q29 -35 49 -61q23 -30 33 -44q16 -20 19 -25q4 -6 -6 -6h-19q-10 0 -23 -1q-16 -1 -29 1q-13 0 -21 -7q-8 -6 -4 -16q1 -7 1 -20v-20q0 -8 5 -8q5 -1 11 -1h94q19 0 19 -8v-31q0 -9 -3 -9h-108q-9 2 -13 -4
q-3 -7 -5 -15q-1 -9 0 -16q2 -6 2 -12q0 -22 21 -22h96q8 0 10 -2q2 -3 2 -11q1 -9 0 -29q-1 -26 -1 -28q0 -18 21 -18h52q13 0 13 8v66q0 16 14 16h15q13 0 24 1q19 1 27 1h21q22 0 22 16v36q0 15 -16 15h-93q-16 -3 -16 7q0 5 -1 12q-1 6 -1 14q0 6 6 9q6 4 12 4h95
q16 0 16 11v40q0 6 -6 13q-5 6 -13 6h-55zM905 324z" />
    <glyph glyph-name="uniE61F" unicode="&#xe61f;" 
d="M416 3q-38 0 -63 27l-187 200q-25 27 -22 65q2 36 29 62l362 337q7 7 15 5l275 -23q8 -1 13 -6.5t6 -13.5l4 -276q0 -9 -6 -15l-362 -337q-27 -25 -64 -25zM556 659zM740 578q-8 9 -19.5 9.5t-20 -7.5t-9 -20t7.5 -21t19.5 -9.5t20 7.5t9 20t-7.5 21zM740 578z" />
    <glyph glyph-name="uniE620" unicode="&#xe620;" horiz-adv-x="1690" 
d="M1210 842h-695q-12 0 -24 -5q-14 -4 -24 -15.5t-13 -26.5q-3 -11 -3 -21v-736h4q3 -18 16.5 -30t30.5 -12h617q21 0 35 15.5t14 38.5v735q0 14 -6 26h48q14 0 23.5 -11t9.5 -26v-781h31v781q0 28 -18.5 48t-45.5 20zM918 256l-36 95h-145l-33 -95h-50l133 348h48
l132 -348h-49zM810 559h-1q-2 -15 -5 -24l-53 -145h117l-52 145q-3 7 -6 24z" />
    <glyph glyph-name="uniE621" unicode="&#xe621;" 
d="M995 415h-130q-8 1 -13.5 7t-5.5 14.5t5.5 14.5t13.5 6h130q8 0 13.5 -6t5.5 -14.5t-5.5 -14.5t-13.5 -7zM794 630q-6 -5 -13.5 -5t-12.5 5t-5 12.5t5 12.5l89 90q5 5 12.5 5t12.5 -5t5 -12.5t-5 -13.5zM691 198q9 -16 9 -33v-42q0 -26 -18.5 -44.5t-44.5 -18.5h-229
q-26 0 -44.5 18.5t-18.5 44.5v42q0 17 9 33q-53 37 -83.5 94.5t-30.5 122.5q0 113 83 192.5t199.5 79.5t199.5 -79.5t83 -192.5q0 -65 -31 -122.5t-83 -94.5zM522.5 645q-99.5 0 -170 -67t-70.5 -163q0 -58 28.5 -108t76.5 -82v-8v-63q0 -22 15 -37t37 -15h167q22 0 37 15
t15 37v63q0 3 -1 8q49 32 77.5 82t28.5 108q0 96 -70.5 163t-170 67zM501 302l-10 168v71h63v-71l-10 -168h-43zM547 206h-48v55h48v-55zM512 729q-9 0 -15 5.5t-6 12.5v130q0 8 6 13.5t15 5.5t15 -5.5t6 -13.5v-130q0 -7 -6 -12.5t-15 -5.5zM251 630l-89 89q-6 6 -6 13.5
t5.5 12.5t13 5t12.5 -5l90 -89q5 -6 5 -13.5t-5.5 -12.5t-13 -5t-12.5 5zM159 457q8 0 13.5 -6t5.5 -14.5t-5.5 -14.5t-13.5 -7h-130q-8 1 -13.5 7t-5.5 14.5t5.5 14.5t13.5 6h130zM408 39h2l1 -1v1h226h1q8 0 14 -6t6 -14.5t-6 -15t-14 -6.5h-1h-226v1h-1l-2 -1
q-9 0 -15 6.5t-6 15t6 14.5t15 6zM428 -24h188h1q8 0 14 -6t6 -14.5t-6 -14.5t-14 -6h-1h-188q-8 0 -14 6t-6 14.5t6 14.5t14 6zM449 -86h147v0q8 0 14 -6t6 -15t-6 -15t-14 -6v0h-147q-8 0 -14 6t-6 14.5t6 15t14 6.5z" />
    <glyph glyph-name="uniE622" unicode="&#xe622;" 
d="M914 706v-724h-683q-50 0 -85.5 35.5t-35.5 85.5t35.5 85t85.5 35h603v643h-644q-66 0 -113 -47t-47 -113v-644q0 -66 47 -113t113 -47h804v804h-80zM271 143h563v-81h-563v81zM271 143z" />
    <glyph glyph-name="uniE623" unicode="&#xe623;" horiz-adv-x="1127" 
d="M256 497q0 -5 3.5 -8t7.5 -3h592q11 0 11 11v30q0 11 -11 11h-592q-11 0 -11 -11v-30zM256 87q0 -4 3.5 -7t7.5 -3h592q11 0 11 10v31q0 10 -11 10h-592q-11 0 -11 -10v-31zM205 742v52h-153q-22 0 -37 -15t-15 -36v-820q0 -21 15 -36t36 -15h1024q22 0 36.5 15t14.5 36
v820q0 21 -15 36t-36 15h-153v-52h153v-819h-1024v817zM410 794h51v-52h-51v52zM256 793.5q0 -42.5 15 -72.5t36 -30t36 30t15 72.5t-15 72.5t-36 30t-36 -30t-15 -72.5zM256 292q0 -4 3.5 -7t7.5 -3h592q11 0 11 10v31q0 10 -11 10h-592q-11 0 -11 -10v-31zM512 793.5
q0 -42.5 15 -72.5t36 -30t36 30t15 72.5t-15 72.5t-36 30t-36 -30t-15 -72.5zM768 793.5q0 -42.5 15 -72.5t36 -30t36 30t15 72.5t-15 72.5t-36 30t-36 -30t-15 -72.5zM666 794h51v-52h-51v52z" />
    <glyph glyph-name="uniE624" unicode="&#xe624;" horiz-adv-x="1147" 
d="M942 282h205l-574 614l-573 -614h205v-328q0 -34 24 -58t58 -24h573q34 0 58 24t24 58v328zM451 159h245v-287h-245v287z" />
    <glyph glyph-name="uniE625" unicode="&#xe625;" 
d="M908 -128h-512q-20 0 -33.5 13.5t-13.5 33t13.5 33t33.5 13.5h465v512q0 19 13.5 33t33 14t33 -14t13.5 -33v-558q0 -20 -13.5 -33.5t-32.5 -13.5zM768 12h-652q-19 0 -32.5 13.5t-13.5 32.5v791q0 20 13.5 33.5t32.5 13.5h652q19 0 33 -13.5t14 -33.5v-791
q0 -19 -14 -32.5t-33 -13.5zM721 756q0 20 -13.5 33.5t-32.5 13.5h-466q-19 0 -32.5 -13.5t-13.5 -33.5v-605q0 -19 13.5 -32.5t32.5 -13.5h466q19 0 32.5 13.5t13.5 32.5v605zM628 198h-232q-20 0 -33.5 13.5t-13.5 33t13.5 33t33.5 13.5h232q20 0 33.5 -13.5t13.5 -33
t-13.5 -33t-33.5 -13.5zM628 407h-232q-20 0 -33.5 14t-13.5 33t13.5 32.5t33.5 13.5h232q20 0 33.5 -13.5t13.5 -32.5t-13.5 -33t-33.5 -14zM628 640h-232q-20 0 -33.5 13.5t-13.5 33t13.5 33t33.5 13.5h232q20 0 33.5 -13.5t13.5 -33t-13.5 -33t-33.5 -13.5zM256 198
q-19 0 -33 13.5t-14 33t14 33t33 13.5t33 -13.5t14 -33t-14 -33t-33 -13.5zM256 407q-19 0 -33 14t-14 33t14 32.5t33 13.5t33 -13.5t14 -32.5t-14 -33t-33 -14zM256 640q-19 0 -33 13.5t-14 33t14 33t33 13.5t33 -13.5t14 -33t-14 -33t-33 -13.5z" />
    <glyph glyph-name="uniE626" unicode="&#xe626;" horiz-adv-x="1025" 
d="M293 141q-19 0 -34 13l-259 230l273 243q16 14 37.5 13t35.5 -17t12.5 -37t-17.5 -35l-187 -167l173 -154q16 -14 17 -35t-13 -37q-15 -17 -38 -17zM751 141l274 243l-260 230q-15 14 -36.5 13t-35.5 -17t-12.5 -37t16.5 -35l173 -154l-187 -167q-16 -14 -17 -35t13 -37
q15 -17 38 -17q20 0 34 13zM512 68l102 615q3 21 -9 38t-33 20.5t-38.5 -8.5t-20.5 -33l-102 -615q-4 -21 8.5 -38t33.5 -21h8q19 0 33 12t18 30z" />
  </font>
</defs>
</svg>
