<?xml version="1.0" encoding="UTF-8"?><svg xmlns="http://www.w3.org/2000/svg" xmlns:xlink="http://www.w3.org/1999/xlink" fill-opacity="1" color-rendering="auto" color-interpolation="auto" text-rendering="auto" stroke="black" stroke-linecap="square" width="523" stroke-miterlimit="10" shape-rendering="auto" stroke-opacity="1" fill="black" stroke-dasharray="none" font-weight="normal" stroke-width="1" height="131" font-family="'Dialog'" font-style="normal" stroke-linejoin="miter" font-size="12px" stroke-dashoffset="0" image-rendering="auto">
  <!--Generated by ySVG 2.5-->
  <defs id="genericDefs"/>
  <g>
    <defs id="defs1">
      <linearGradient x1="562" gradientUnits="userSpaceOnUse" x2="642" y1="267" y2="307" id="linearGradient1" spreadMethod="reflect">
        <stop stop-opacity="1" stop-color="yellow" offset="0%"/>
        <stop stop-opacity="1" stop-color="rgb(183,201,227)" offset="100%"/>
      </linearGradient>
      <linearGradient x1="215" gradientUnits="userSpaceOnUse" x2="295" y1="267" y2="307" id="linearGradient2" spreadMethod="reflect">
        <stop stop-opacity="1" stop-color="aqua" offset="0%"/>
        <stop stop-opacity="1" stop-color="rgb(183,201,227)" offset="100%"/>
      </linearGradient>
      <linearGradient x1="388.5" gradientUnits="userSpaceOnUse" x2="468.5" y1="267" y2="307" id="linearGradient3" spreadMethod="reflect">
        <stop stop-opacity="1" stop-color="lime" offset="0%"/>
        <stop stop-opacity="1" stop-color="rgb(183,201,227)" offset="100%"/>
      </linearGradient>
      <clipPath clipPathUnits="userSpaceOnUse" id="clipPath1">
        <path d="M0 0 L523 0 L523 131 L0 131 L0 0 Z"/>
      </clipPath>
      <clipPath clipPathUnits="userSpaceOnUse" id="clipPath2">
        <path d="M200 252 L723 252 L723 383 L200 383 L200 252 Z"/>
      </clipPath>
      <clipPath clipPathUnits="userSpaceOnUse" id="clipPath3">
        <path d="M591 337 L591 365 L707 365 L707 337 Z"/>
      </clipPath>
    </defs>
    <g fill="url(#linearGradient1)" text-rendering="geometricPrecision" shape-rendering="geometricPrecision" transform="matrix(1,0,0,1,-200,-252)" stroke="url(#linearGradient1)">
      <path d="M562 267 L642 267 L642 307 L562 307 Z" stroke="none" clip-path="url(#clipPath2)"/>
    </g>
    <g text-rendering="geometricPrecision" stroke-miterlimit="1.45" shape-rendering="geometricPrecision" transform="matrix(1,0,0,1,-200,-252)" stroke-linecap="butt">
      <path fill="none" d="M562 267 L642 267 L642 307 L562 307 Z" clip-path="url(#clipPath2)"/>
      <text x="585.9453" xml:space="preserve" y="291.5352" clip-path="url(#clipPath2)" font-family="sans-serif" stroke="none">Action</text>
    </g>
    <g fill="url(#linearGradient2)" text-rendering="geometricPrecision" shape-rendering="geometricPrecision" transform="matrix(1,0,0,1,-200,-252)" stroke="url(#linearGradient2)">
      <path d="M215 267 L295 267 L295 307 L215 307 Z" stroke="none" clip-path="url(#clipPath2)"/>
    </g>
    <g text-rendering="geometricPrecision" stroke-miterlimit="1.45" shape-rendering="geometricPrecision" transform="matrix(1,0,0,1,-200,-252)" stroke-linecap="butt">
      <path fill="none" d="M215 267 L295 267 L295 307 L215 307 Z" clip-path="url(#clipPath2)"/>
      <text x="240.9844" xml:space="preserve" y="291.5352" clip-path="url(#clipPath2)" font-family="sans-serif" stroke="none">Store</text>
    </g>
    <g fill="url(#linearGradient3)" text-rendering="geometricPrecision" shape-rendering="geometricPrecision" transform="matrix(1,0,0,1,-200,-252)" stroke="url(#linearGradient3)">
      <path d="M388.5 267 L468.5 267 L468.5 307 L388.5 307 Z" stroke="none" clip-path="url(#clipPath2)"/>
    </g>
    <g text-rendering="geometricPrecision" stroke-miterlimit="1.45" shape-rendering="geometricPrecision" transform="matrix(1,0,0,1,-200,-252)" stroke-linecap="butt">
      <path fill="none" d="M388.5 267 L468.5 267 L468.5 307 L388.5 307 Z" clip-path="url(#clipPath2)"/>
      <text x="416.5176" xml:space="preserve" y="291.5352" clip-path="url(#clipPath2)" font-family="sans-serif" stroke="none">View</text>
    </g>
    <g transform="matrix(1,0,0,1,-200,-252)" fill-opacity="0" fill="rgb(255,255,255)" text-rendering="geometricPrecision" shape-rendering="geometricPrecision" stroke="rgb(255,255,255)" stroke-opacity="0">
      <rect x="592" width="114" height="26" y="338" clip-path="url(#clipPath2)" stroke="none"/>
    </g>
    <g transform="matrix(1,0,0,1,-200,-252)" fill-opacity="0" fill="rgb(255,255,255)" text-rendering="geometricPrecision" shape-rendering="geometricPrecision" stroke="rgb(255,255,255)" stroke-opacity="0">
      <rect x="591" width="1" height="28" y="337" clip-path="url(#clipPath2)" stroke="none"/>
      <rect x="592" width="114" height="1" y="337" clip-path="url(#clipPath2)" stroke="none"/>
      <rect x="592" y="364" clip-path="url(#clipPath2)" fill="rgb(178,178,178)" width="115" height="1" stroke="none"/>
      <rect x="706" y="337" clip-path="url(#clipPath2)" fill="rgb(178,178,178)" width="1" height="27" stroke="none"/>
    </g>
    <g font-size="13px" stroke-linecap="butt" transform="matrix(1,0,0,1,-200,-252)" text-rendering="geometricPrecision" font-family="sans-serif" shape-rendering="geometricPrecision" font-weight="bold" stroke-miterlimit="1.45">
      <text x="615.146" xml:space="preserve" y="355.1016" clip-path="url(#clipPath3)" stroke="none">@kangcafe</text>
      <path fill="none" d="M602 306.9731 L602 368 L255 368 L255 314.9731" clip-path="url(#clipPath2)"/>
      <path d="M255 306.9731 L250 318.9731 L255 315.9731 L260 318.9731 Z" stroke="none" clip-path="url(#clipPath2)"/>
      <path fill="none" d="M295.0287 287 L380.5173 287" clip-path="url(#clipPath2)"/>
      <path d="M388.5173 287 L376.5173 282 L379.5173 287 L376.5173 292 Z" stroke="none" clip-path="url(#clipPath2)"/>
      <path fill="none" d="M468.5287 287 L554.0173 287" clip-path="url(#clipPath2)"/>
      <path d="M562.0173 287 L550.0173 282 L553.0173 287 L550.0173 292 Z" stroke="none" clip-path="url(#clipPath2)"/>
    </g>
  </g>
</svg>
