<?xml version="1.0" encoding="UTF-8"?><svg xmlns="http://www.w3.org/2000/svg" xmlns:xlink="http://www.w3.org/1999/xlink" fill-opacity="1" color-rendering="auto" color-interpolation="auto" text-rendering="auto" stroke="black" stroke-linecap="square" width="595" stroke-miterlimit="10" shape-rendering="auto" stroke-opacity="1" fill="black" stroke-dasharray="none" font-weight="normal" stroke-width="1" height="350" font-family="'Dialog'" font-style="normal" stroke-linejoin="miter" font-size="12px" stroke-dashoffset="0" image-rendering="auto">
  <!--Generated by ySVG 2.5-->
  <defs id="genericDefs"/>
  <g>
    <defs id="defs1">
      <linearGradient x1="170" gradientUnits="userSpaceOnUse" x2="479" y1="100" y2="420" id="linearGradient1" spreadMethod="reflect">
        <stop stop-opacity="1" stop-color="rgb(232,238,247)" offset="0%"/>
        <stop stop-opacity="1" stop-color="rgb(183,201,227)" offset="100%"/>
      </linearGradient>
      <linearGradient x1="-85.25" gradientUnits="userSpaceOnUse" x2="34.75" y1="130" y2="170" id="linearGradient2" spreadMethod="reflect">
        <stop stop-opacity="1" stop-color="rgb(232,238,247)" offset="0%"/>
        <stop stop-opacity="1" stop-color="rgb(183,201,227)" offset="100%"/>
      </linearGradient>
      <linearGradient x1="-85.25" gradientUnits="userSpaceOnUse" x2="34.75" y1="350" y2="390" id="linearGradient3" spreadMethod="reflect">
        <stop stop-opacity="1" stop-color="rgb(232,238,247)" offset="0%"/>
        <stop stop-opacity="1" stop-color="rgb(183,201,227)" offset="100%"/>
      </linearGradient>
      <linearGradient x1="223.25" gradientUnits="userSpaceOnUse" x2="425.75" y1="130" y2="170" id="linearGradient4" spreadMethod="reflect">
        <stop stop-opacity="1" stop-color="rgb(232,238,247)" offset="0%"/>
        <stop stop-opacity="1" stop-color="rgb(183,201,227)" offset="100%"/>
      </linearGradient>
      <linearGradient x1="223.25" gradientUnits="userSpaceOnUse" x2="425.75" y1="200" y2="240" id="linearGradient5" spreadMethod="reflect">
        <stop stop-opacity="1" stop-color="rgb(232,238,247)" offset="0%"/>
        <stop stop-opacity="1" stop-color="rgb(183,201,227)" offset="100%"/>
      </linearGradient>
      <linearGradient x1="223.25" gradientUnits="userSpaceOnUse" x2="425.75" y1="280" y2="320" id="linearGradient6" spreadMethod="reflect">
        <stop stop-opacity="1" stop-color="rgb(232,238,247)" offset="0%"/>
        <stop stop-opacity="1" stop-color="rgb(183,201,227)" offset="100%"/>
      </linearGradient>
      <linearGradient x1="223.25" gradientUnits="userSpaceOnUse" x2="425.75" y1="350" y2="390" id="linearGradient7" spreadMethod="reflect">
        <stop stop-opacity="1" stop-color="rgb(232,238,247)" offset="0%"/>
        <stop stop-opacity="1" stop-color="rgb(183,201,227)" offset="100%"/>
      </linearGradient>
      <clipPath clipPathUnits="userSpaceOnUse" id="clipPath1">
        <path d="M0 0 L595 0 L595 350 L0 350 L0 0 Z"/>
      </clipPath>
      <clipPath clipPathUnits="userSpaceOnUse" id="clipPath2">
        <path d="M-101 85 L494 85 L494 435 L-101 435 L-101 85 Z"/>
      </clipPath>
      <clipPath clipPathUnits="userSpaceOnUse" id="clipPath3">
        <path d="M13 392 L13 420 L129 420 L129 392 Z"/>
      </clipPath>
    </defs>
    <g fill="white" text-rendering="geometricPrecision" shape-rendering="geometricPrecision" transform="translate(101,-85)" stroke="white">
      <rect x="-101" width="595" height="350" y="85" clip-path="url(#clipPath2)" stroke="none"/>
    </g>
    <g fill="url(#linearGradient1)" text-rendering="geometricPrecision" shape-rendering="geometricPrecision" transform="matrix(1,0,0,1,101,-85)" stroke="url(#linearGradient1)">
      <rect x="170" width="309" height="320" y="100" clip-path="url(#clipPath2)" stroke="none"/>
    </g>
    <g text-rendering="geometricPrecision" stroke-miterlimit="1.45" shape-rendering="geometricPrecision" transform="matrix(1,0,0,1,101,-85)" stroke-linecap="butt">
      <rect fill="none" x="170" width="309" height="320" y="100" clip-path="url(#clipPath2)"/>
      <path fill="none" d="M180 100 L180 420 M469 100 L469 420 M180 100 Z" clip-path="url(#clipPath2)"/>
      <text x="284.7207" xml:space="preserve" y="264.5352" clip-path="url(#clipPath2)" font-family="sans-serif" stroke="none">Matched Route</text>
    </g>
    <g fill="url(#linearGradient2)" text-rendering="geometricPrecision" shape-rendering="geometricPrecision" transform="matrix(1,0,0,1,101,-85)" stroke="url(#linearGradient2)">
      <rect x="-85.25" y="130" clip-path="url(#clipPath2)" width="120" rx="20" ry="20" height="40" stroke="none"/>
    </g>
    <g text-rendering="geometricPrecision" stroke-miterlimit="1.45" shape-rendering="geometricPrecision" transform="matrix(1,0,0,1,101,-85)" stroke-linecap="butt">
      <rect x="-85.25" y="130" clip-path="url(#clipPath2)" fill="none" width="120" rx="20" ry="20" height="40"/>
      <text x="-62.0469" xml:space="preserve" y="154.5352" clip-path="url(#clipPath2)" font-family="sans-serif" stroke="none">HTTP Request</text>
    </g>
    <g fill="url(#linearGradient3)" text-rendering="geometricPrecision" shape-rendering="geometricPrecision" transform="matrix(1,0,0,1,101,-85)" stroke="url(#linearGradient3)">
      <rect x="-85.25" y="350" clip-path="url(#clipPath2)" width="120" rx="20" ry="20" height="40" stroke="none"/>
    </g>
    <g text-rendering="geometricPrecision" stroke-miterlimit="1.45" shape-rendering="geometricPrecision" transform="matrix(1,0,0,1,101,-85)" stroke-linecap="butt">
      <rect x="-85.25" y="350" clip-path="url(#clipPath2)" fill="none" width="120" rx="20" ry="20" height="40"/>
      <text x="-66.4824" xml:space="preserve" y="374.5352" clip-path="url(#clipPath2)" font-family="sans-serif" stroke="none">HTTP Response</text>
    </g>
    <g fill="url(#linearGradient4)" text-rendering="geometricPrecision" shape-rendering="geometricPrecision" transform="matrix(1,0,0,1,101,-85)" stroke="url(#linearGradient4)">
      <path d="M223.25 130 L425.75 130 L425.75 170 L223.25 170 Z" stroke="none" clip-path="url(#clipPath2)"/>
    </g>
    <g text-rendering="geometricPrecision" stroke-miterlimit="1.45" shape-rendering="geometricPrecision" transform="matrix(1,0,0,1,101,-85)" stroke-linecap="butt">
      <path fill="none" d="M223.25 130 L425.75 130 L425.75 170 L223.25 170 Z" clip-path="url(#clipPath2)"/>
      <text x="255.2363" xml:space="preserve" y="154.5352" clip-path="url(#clipPath2)" font-family="sans-serif" stroke="none">CORS/CSRF... Middleware</text>
    </g>
    <g fill="url(#linearGradient5)" text-rendering="geometricPrecision" shape-rendering="geometricPrecision" transform="matrix(1,0,0,1,101,-85)" stroke="url(#linearGradient5)">
      <path d="M223.25 200 L425.75 200 L425.75 240 L223.25 240 Z" stroke="none" clip-path="url(#clipPath2)"/>
    </g>
    <g text-rendering="geometricPrecision" stroke-miterlimit="1.45" shape-rendering="geometricPrecision" transform="matrix(1,0,0,1,101,-85)" stroke-linecap="butt">
      <path fill="none" d="M223.25 200 L425.75 200 L425.75 240 L223.25 240 Z" clip-path="url(#clipPath2)"/>
      <text x="281.1289" xml:space="preserve" y="224.5352" clip-path="url(#clipPath2)" font-family="sans-serif" stroke="none">Auth Middleware</text>
    </g>
    <g fill="url(#linearGradient6)" text-rendering="geometricPrecision" shape-rendering="geometricPrecision" transform="matrix(1,0,0,1,101,-85)" stroke="url(#linearGradient6)">
      <path d="M223.25 280 L425.75 280 L425.75 320 L223.25 320 Z" stroke="none" clip-path="url(#clipPath2)"/>
    </g>
    <g text-rendering="geometricPrecision" stroke-miterlimit="1.45" shape-rendering="geometricPrecision" transform="matrix(1,0,0,1,101,-85)" stroke-linecap="butt">
      <path fill="none" d="M223.25 280 L425.75 280 L425.75 320 L223.25 320 Z" clip-path="url(#clipPath2)"/>
      <text x="278.6152" xml:space="preserve" y="304.5352" clip-path="url(#clipPath2)" font-family="sans-serif" stroke="none">Other Middleware</text>
    </g>
    <g fill="url(#linearGradient7)" text-rendering="geometricPrecision" shape-rendering="geometricPrecision" transform="matrix(1,0,0,1,101,-85)" stroke="url(#linearGradient7)">
      <path d="M223.25 350 L425.75 350 L425.75 390 L223.25 390 Z" stroke="none" clip-path="url(#clipPath2)"/>
    </g>
    <g text-rendering="geometricPrecision" stroke-miterlimit="1.45" shape-rendering="geometricPrecision" transform="matrix(1,0,0,1,101,-85)" stroke-linecap="butt">
      <path fill="none" d="M223.25 350 L425.75 350 L425.75 390 L223.25 390 Z" clip-path="url(#clipPath2)"/>
      <text x="292.1328" xml:space="preserve" y="374.5352" clip-path="url(#clipPath2)" font-family="sans-serif" stroke="none">Main Task...</text>
    </g>
    <g transform="matrix(1,0,0,1,101,-85)" fill-opacity="0" fill="rgb(255,255,255)" text-rendering="geometricPrecision" shape-rendering="geometricPrecision" stroke="rgb(255,255,255)" stroke-opacity="0">
      <rect x="14" width="114" height="26" y="393" clip-path="url(#clipPath2)" stroke="none"/>
    </g>
    <g transform="matrix(1,0,0,1,101,-85)" fill-opacity="0" fill="rgb(255,255,255)" text-rendering="geometricPrecision" shape-rendering="geometricPrecision" stroke="rgb(255,255,255)" stroke-opacity="0">
      <rect x="13" width="1" height="28" y="392" clip-path="url(#clipPath2)" stroke="none"/>
      <rect x="14" width="114" height="1" y="392" clip-path="url(#clipPath2)" stroke="none"/>
      <rect x="14" y="419" clip-path="url(#clipPath2)" fill="rgb(178,178,178)" width="115" height="1" stroke="none"/>
      <rect x="128" y="392" clip-path="url(#clipPath2)" fill="rgb(178,178,178)" width="1" height="27" stroke="none"/>
    </g>
    <g font-size="13px" stroke-linecap="butt" transform="matrix(1,0,0,1,101,-85)" text-rendering="geometricPrecision" font-family="sans-serif" shape-rendering="geometricPrecision" font-weight="bold" stroke-miterlimit="1.45">
      <text x="44.7814" xml:space="preserve" y="410.1016" clip-path="url(#clipPath3)" stroke="none">#kangkk</text>
      <path fill="none" d="M34.7352 150 L215.2309 150" clip-path="url(#clipPath2)"/>
      <path d="M223.2309 150 L211.2309 145 L214.2309 150 L211.2309 155 Z" stroke="none" clip-path="url(#clipPath2)"/>
      <path fill="none" d="M324.5 169.9951 L324.5 192.0273" clip-path="url(#clipPath2)"/>
      <path d="M324.5 200.0273 L329.5 188.0273 L324.5 191.0273 L319.5 188.0273 Z" stroke="none" clip-path="url(#clipPath2)"/>
      <path fill="none" d="M324.5 239.9609 L324.5 271.9772" clip-path="url(#clipPath2)"/>
      <path d="M324.5 279.9772 L329.5 267.9772 L324.5 270.9772 L319.5 267.9772 Z" stroke="none" clip-path="url(#clipPath2)"/>
      <path fill="none" d="M324.5 319.9951 L324.5 342.0273" clip-path="url(#clipPath2)"/>
      <path d="M324.5 350.0273 L329.5 338.0273 L324.5 341.0273 L319.5 338.0273 Z" stroke="none" clip-path="url(#clipPath2)"/>
      <path fill="none" d="M223.2723 370 L42.7266 370" clip-path="url(#clipPath2)"/>
      <path d="M34.7266 370 L46.7266 375 L43.7266 370 L46.7266 365 Z" stroke="none" clip-path="url(#clipPath2)"/>
    </g>
  </g>
</svg>
