<?xml version="1.0" encoding="UTF-8"?><svg xmlns="http://www.w3.org/2000/svg" xmlns:xlink="http://www.w3.org/1999/xlink" fill-opacity="1" color-rendering="auto" color-interpolation="auto" text-rendering="auto" stroke="black" stroke-linecap="square" width="683" stroke-miterlimit="10" shape-rendering="auto" stroke-opacity="1" fill="black" stroke-dasharray="none" font-weight="normal" stroke-width="1" height="240" font-family="'Dialog'" font-style="normal" stroke-linejoin="miter" font-size="12px" stroke-dashoffset="0" image-rendering="auto">
  <!--Generated by ySVG 2.5-->
  <defs id="genericDefs"/>
  <g>
    <defs id="defs1">
      <clipPath clipPathUnits="userSpaceOnUse" id="clipPath1">
        <path d="M0 0 L683 0 L683 240 L0 240 L0 0 Z"/>
      </clipPath>
      <clipPath clipPathUnits="userSpaceOnUse" id="clipPath2">
        <path d="M10 90 L693 90 L693 330 L10 330 L10 90 Z"/>
      </clipPath>
      <clipPath clipPathUnits="userSpaceOnUse" id="clipPath3">
        <path d="M561 286 L561 314 L677 314 L677 286 Z"/>
      </clipPath>
    </defs>
    <g fill="white" text-rendering="geometricPrecision" shape-rendering="geometricPrecision" transform="translate(-10,-90)" stroke="white">
      <rect x="10" width="683" height="240" y="90" clip-path="url(#clipPath2)" stroke="none"/>
    </g>
    <g fill="rgb(255,204,0)" text-rendering="geometricPrecision" shape-rendering="geometricPrecision" transform="matrix(1,0,0,1,-10,-90)" stroke="rgb(255,204,0)">
      <circle r="15" clip-path="url(#clipPath2)" cx="140" cy="120" stroke="none"/>
    </g>
    <g text-rendering="geometricPrecision" stroke-miterlimit="1.45" shape-rendering="geometricPrecision" transform="matrix(1,0,0,1,-10,-90)" stroke-linecap="butt">
      <circle fill="none" r="15" clip-path="url(#clipPath2)" cx="140" cy="120"/>
      <text x="136.4023" xml:space="preserve" y="124.5352" clip-path="url(#clipPath2)" font-family="sans-serif" stroke="none">1</text>
    </g>
    <g fill="rgb(255,204,0)" text-rendering="geometricPrecision" shape-rendering="geometricPrecision" transform="matrix(1,0,0,1,-10,-90)" stroke="rgb(255,204,0)">
      <circle r="15" clip-path="url(#clipPath2)" cx="90" cy="210" stroke="none"/>
    </g>
    <g text-rendering="geometricPrecision" stroke-miterlimit="1.45" shape-rendering="geometricPrecision" transform="matrix(1,0,0,1,-10,-90)" stroke-linecap="butt">
      <circle fill="none" r="15" clip-path="url(#clipPath2)" cx="90" cy="210"/>
      <text x="86.4023" xml:space="preserve" y="214.5352" clip-path="url(#clipPath2)" font-family="sans-serif" stroke="none">2</text>
    </g>
    <g fill="rgb(255,204,0)" text-rendering="geometricPrecision" shape-rendering="geometricPrecision" transform="matrix(1,0,0,1,-10,-90)" stroke="rgb(255,204,0)">
      <circle r="15" clip-path="url(#clipPath2)" cx="194" cy="210" stroke="none"/>
    </g>
    <g text-rendering="geometricPrecision" stroke-miterlimit="1.45" shape-rendering="geometricPrecision" transform="matrix(1,0,0,1,-10,-90)" stroke-linecap="butt">
      <circle fill="none" r="15" clip-path="url(#clipPath2)" cx="194" cy="210"/>
      <text x="190.4023" xml:space="preserve" y="214.5352" clip-path="url(#clipPath2)" font-family="sans-serif" stroke="none">3</text>
    </g>
    <g fill="rgb(255,204,0)" text-rendering="geometricPrecision" shape-rendering="geometricPrecision" transform="matrix(1,0,0,1,-10,-90)" stroke="rgb(255,204,0)">
      <circle r="15" clip-path="url(#clipPath2)" cx="40" cy="300" stroke="none"/>
    </g>
    <g text-rendering="geometricPrecision" stroke-miterlimit="1.45" shape-rendering="geometricPrecision" transform="matrix(1,0,0,1,-10,-90)" stroke-linecap="butt">
      <circle fill="none" r="15" clip-path="url(#clipPath2)" cx="40" cy="300"/>
      <text x="36.4023" xml:space="preserve" y="304.5352" clip-path="url(#clipPath2)" font-family="sans-serif" stroke="none">4</text>
    </g>
    <g fill="rgb(255,204,0)" text-rendering="geometricPrecision" shape-rendering="geometricPrecision" transform="matrix(1,0,0,1,-10,-90)" stroke="rgb(255,204,0)">
      <circle r="15" clip-path="url(#clipPath2)" cx="90" cy="300" stroke="none"/>
    </g>
    <g text-rendering="geometricPrecision" stroke-miterlimit="1.45" shape-rendering="geometricPrecision" transform="matrix(1,0,0,1,-10,-90)" stroke-linecap="butt">
      <circle fill="none" r="15" clip-path="url(#clipPath2)" cx="90" cy="300"/>
      <text x="86.4023" xml:space="preserve" y="304.5352" clip-path="url(#clipPath2)" font-family="sans-serif" stroke="none">5</text>
    </g>
    <g fill="rgb(255,204,0)" text-rendering="geometricPrecision" shape-rendering="geometricPrecision" transform="matrix(1,0,0,1,-10,-90)" stroke="rgb(255,204,0)">
      <circle r="15" clip-path="url(#clipPath2)" cx="140" cy="300" stroke="none"/>
    </g>
    <g text-rendering="geometricPrecision" stroke-miterlimit="1.45" shape-rendering="geometricPrecision" transform="matrix(1,0,0,1,-10,-90)" stroke-linecap="butt">
      <circle fill="none" r="15" clip-path="url(#clipPath2)" cx="140" cy="300"/>
      <text x="136.4023" xml:space="preserve" y="304.5352" clip-path="url(#clipPath2)" font-family="sans-serif" stroke="none">6</text>
    </g>
    <g fill="rgb(255,204,0)" text-rendering="geometricPrecision" shape-rendering="geometricPrecision" transform="matrix(1,0,0,1,-10,-90)" stroke="rgb(255,204,0)">
      <circle r="15" clip-path="url(#clipPath2)" cx="260" cy="240" stroke="none"/>
    </g>
    <g text-rendering="geometricPrecision" stroke-miterlimit="1.45" shape-rendering="geometricPrecision" transform="matrix(1,0,0,1,-10,-90)" stroke-linecap="butt">
      <circle fill="none" r="15" clip-path="url(#clipPath2)" cx="260" cy="240"/>
      <text x="256.4023" xml:space="preserve" y="244.5352" clip-path="url(#clipPath2)" font-family="sans-serif" stroke="none">7</text>
    </g>
    <g fill="rgb(255,204,0)" text-rendering="geometricPrecision" shape-rendering="geometricPrecision" transform="matrix(1,0,0,1,-10,-90)" stroke="rgb(255,204,0)">
      <circle r="15" clip-path="url(#clipPath2)" cx="220" cy="300" stroke="none"/>
    </g>
    <g text-rendering="geometricPrecision" stroke-miterlimit="1.45" shape-rendering="geometricPrecision" transform="matrix(1,0,0,1,-10,-90)" stroke-linecap="butt">
      <circle fill="none" r="15" clip-path="url(#clipPath2)" cx="220" cy="300"/>
      <text x="216.4023" xml:space="preserve" y="304.5352" clip-path="url(#clipPath2)" font-family="sans-serif" stroke="none">8</text>
    </g>
    <g fill="rgb(255,204,0)" text-rendering="geometricPrecision" shape-rendering="geometricPrecision" transform="matrix(1,0,0,1,-10,-90)" stroke="rgb(255,204,0)">
      <circle r="15" clip-path="url(#clipPath2)" cx="450" cy="120" stroke="none"/>
    </g>
    <g text-rendering="geometricPrecision" stroke-miterlimit="1.45" shape-rendering="geometricPrecision" transform="matrix(1,0,0,1,-10,-90)" stroke-linecap="butt">
      <circle fill="none" r="15" clip-path="url(#clipPath2)" cx="450" cy="120"/>
      <text x="446.4023" xml:space="preserve" y="124.5352" clip-path="url(#clipPath2)" font-family="sans-serif" stroke="none">1</text>
    </g>
    <g fill="rgb(255,204,0)" text-rendering="geometricPrecision" shape-rendering="geometricPrecision" transform="matrix(1,0,0,1,-10,-90)" stroke="rgb(255,204,0)">
      <circle r="15" clip-path="url(#clipPath2)" cx="400" cy="210" stroke="none"/>
    </g>
    <g text-rendering="geometricPrecision" stroke-miterlimit="1.45" shape-rendering="geometricPrecision" transform="matrix(1,0,0,1,-10,-90)" stroke-linecap="butt">
      <circle fill="none" r="15" clip-path="url(#clipPath2)" cx="400" cy="210"/>
      <text x="396.4023" xml:space="preserve" y="214.5352" clip-path="url(#clipPath2)" font-family="sans-serif" stroke="none">2</text>
    </g>
    <g fill="rgb(255,204,0)" text-rendering="geometricPrecision" shape-rendering="geometricPrecision" transform="matrix(1,0,0,1,-10,-90)" stroke="rgb(255,204,0)">
      <circle r="15" clip-path="url(#clipPath2)" cx="504" cy="210" stroke="none"/>
    </g>
    <g text-rendering="geometricPrecision" stroke-miterlimit="1.45" shape-rendering="geometricPrecision" transform="matrix(1,0,0,1,-10,-90)" stroke-linecap="butt">
      <circle fill="none" r="15" clip-path="url(#clipPath2)" cx="504" cy="210"/>
      <text x="500.4023" xml:space="preserve" y="214.5352" clip-path="url(#clipPath2)" font-family="sans-serif" stroke="none">3</text>
    </g>
    <g fill="rgb(255,204,0)" text-rendering="geometricPrecision" shape-rendering="geometricPrecision" transform="matrix(1,0,0,1,-10,-90)" stroke="rgb(255,204,0)">
      <circle r="15" clip-path="url(#clipPath2)" cx="350" cy="300" stroke="none"/>
    </g>
    <g text-rendering="geometricPrecision" stroke-miterlimit="1.45" shape-rendering="geometricPrecision" transform="matrix(1,0,0,1,-10,-90)" stroke-linecap="butt">
      <circle fill="none" r="15" clip-path="url(#clipPath2)" cx="350" cy="300"/>
      <text x="346.4023" xml:space="preserve" y="304.5352" clip-path="url(#clipPath2)" font-family="sans-serif" stroke="none">4</text>
    </g>
    <g fill="rgb(255,204,0)" text-rendering="geometricPrecision" shape-rendering="geometricPrecision" transform="matrix(1,0,0,1,-10,-90)" stroke="rgb(255,204,0)">
      <circle r="15" clip-path="url(#clipPath2)" cx="400" cy="300" stroke="none"/>
    </g>
    <g text-rendering="geometricPrecision" stroke-miterlimit="1.45" shape-rendering="geometricPrecision" transform="matrix(1,0,0,1,-10,-90)" stroke-linecap="butt">
      <circle fill="none" r="15" clip-path="url(#clipPath2)" cx="400" cy="300"/>
      <text x="396.4023" xml:space="preserve" y="304.5352" clip-path="url(#clipPath2)" font-family="sans-serif" stroke="none">5</text>
    </g>
    <g fill="rgb(255,204,0)" text-rendering="geometricPrecision" shape-rendering="geometricPrecision" transform="matrix(1,0,0,1,-10,-90)" stroke="rgb(255,204,0)">
      <circle r="15" clip-path="url(#clipPath2)" cx="450" cy="300" stroke="none"/>
    </g>
    <g text-rendering="geometricPrecision" stroke-miterlimit="1.45" shape-rendering="geometricPrecision" transform="matrix(1,0,0,1,-10,-90)" stroke-linecap="butt">
      <circle fill="none" r="15" clip-path="url(#clipPath2)" cx="450" cy="300"/>
      <text x="446.4023" xml:space="preserve" y="304.5352" clip-path="url(#clipPath2)" font-family="sans-serif" stroke="none">6</text>
    </g>
    <g fill="rgb(255,204,0)" text-rendering="geometricPrecision" shape-rendering="geometricPrecision" transform="matrix(1,0,0,1,-10,-90)" stroke="rgb(255,204,0)">
      <circle r="15" clip-path="url(#clipPath2)" cx="570" cy="240" stroke="none"/>
    </g>
    <g text-rendering="geometricPrecision" stroke-miterlimit="1.45" shape-rendering="geometricPrecision" transform="matrix(1,0,0,1,-10,-90)" stroke-linecap="butt">
      <circle fill="none" r="15" clip-path="url(#clipPath2)" cx="570" cy="240"/>
      <text x="566.4023" xml:space="preserve" y="244.5352" clip-path="url(#clipPath2)" font-family="sans-serif" stroke="none">7</text>
    </g>
    <g fill="rgb(255,204,0)" text-rendering="geometricPrecision" shape-rendering="geometricPrecision" transform="matrix(1,0,0,1,-10,-90)" stroke="rgb(255,204,0)">
      <circle r="15" clip-path="url(#clipPath2)" cx="530" cy="300" stroke="none"/>
    </g>
    <g text-rendering="geometricPrecision" stroke-miterlimit="1.45" shape-rendering="geometricPrecision" transform="matrix(1,0,0,1,-10,-90)" stroke-linecap="butt">
      <circle fill="none" r="15" clip-path="url(#clipPath2)" cx="530" cy="300"/>
      <text x="526.4023" xml:space="preserve" y="304.5352" clip-path="url(#clipPath2)" font-family="sans-serif" stroke="none">8</text>
    </g>
    <g fill="rgb(51,204,204)" text-rendering="geometricPrecision" shape-rendering="geometricPrecision" transform="matrix(1,0,0,1,-10,-90)" stroke="rgb(51,204,204)">
      <circle r="15" clip-path="url(#clipPath2)" cx="630" cy="240" stroke="none"/>
    </g>
    <g text-rendering="geometricPrecision" stroke-miterlimit="1.45" shape-rendering="geometricPrecision" transform="matrix(1,0,0,1,-10,-90)" stroke-linecap="butt">
      <circle fill="none" r="15" clip-path="url(#clipPath2)" cx="630" cy="240"/>
      <text x="626.4023" xml:space="preserve" y="244.5352" clip-path="url(#clipPath2)" font-family="sans-serif" stroke="none">7</text>
    </g>
    <g fill="red" text-rendering="geometricPrecision" shape-rendering="geometricPrecision" transform="matrix(1,0,0,1,-10,-90)" stroke="red">
      <circle r="15" clip-path="url(#clipPath2)" cx="590" cy="210" stroke="none"/>
    </g>
    <g text-rendering="geometricPrecision" stroke-miterlimit="1.45" shape-rendering="geometricPrecision" transform="matrix(1,0,0,1,-10,-90)" stroke-linecap="butt">
      <circle fill="none" r="15" clip-path="url(#clipPath2)" cx="590" cy="210"/>
      <text x="586.4023" xml:space="preserve" y="214.5352" clip-path="url(#clipPath2)" font-family="sans-serif" stroke="none">3</text>
    </g>
    <g fill="red" text-rendering="geometricPrecision" shape-rendering="geometricPrecision" transform="matrix(1,0,0,1,-10,-90)" stroke="red">
      <circle r="15" clip-path="url(#clipPath2)" cx="510" cy="120" stroke="none"/>
    </g>
    <g text-rendering="geometricPrecision" stroke-miterlimit="1.45" shape-rendering="geometricPrecision" transform="matrix(1,0,0,1,-10,-90)" stroke-linecap="butt">
      <circle fill="none" r="15" clip-path="url(#clipPath2)" cx="510" cy="120"/>
      <text x="506.4023" xml:space="preserve" y="124.5352" clip-path="url(#clipPath2)" font-family="sans-serif" stroke="none">1</text>
    </g>
    <g transform="matrix(1,0,0,1,-10,-90)" fill-opacity="0" fill="rgb(255,255,255)" text-rendering="geometricPrecision" shape-rendering="geometricPrecision" stroke="rgb(255,255,255)" stroke-opacity="0">
      <rect x="562" width="114" height="26" y="287" clip-path="url(#clipPath2)" stroke="none"/>
      <rect x="561" width="1" height="28" y="286" clip-path="url(#clipPath2)" stroke="none"/>
      <rect x="562" width="114" height="1" y="286" clip-path="url(#clipPath2)" stroke="none"/>
      <rect x="562" y="313" clip-path="url(#clipPath2)" fill="rgb(178,178,178)" width="115" height="1" stroke="none"/>
      <rect x="676" y="286" clip-path="url(#clipPath2)" fill="rgb(178,178,178)" width="1" height="27" stroke="none"/>
    </g>
    <g font-size="13px" stroke-linecap="butt" transform="matrix(1,0,0,1,-10,-90)" text-rendering="geometricPrecision" font-family="sans-serif" shape-rendering="geometricPrecision" font-weight="bold" stroke-miterlimit="1.45">
      <text x="592.7314" xml:space="preserve" y="304.1016" clip-path="url(#clipPath3)" stroke="none">#kangkk</text>
      <path fill="none" d="M132.7154 133.1124 L101.1698 189.8944" clip-path="url(#clipPath2)"/>
      <path d="M97.2846 196.8876 L107.4831 188.826 L101.6554 189.0202 L98.7416 183.9695 Z" stroke="none" clip-path="url(#clipPath2)"/>
      <path fill="none" d="M147.7174 132.8624 L182.1666 190.2777" clip-path="url(#clipPath2)"/>
      <path d="M186.2826 197.1376 L184.3961 184.2752 L181.6521 189.4202 L175.8212 189.4202 Z" stroke="none" clip-path="url(#clipPath2)"/>
      <path fill="none" d="M82.7154 223.1124 L51.1698 279.8944" clip-path="url(#clipPath2)"/>
      <path d="M47.2846 286.8876 L57.4831 278.826 L51.6554 279.0202 L48.7416 273.9695 Z" stroke="none" clip-path="url(#clipPath2)"/>
      <path fill="none" d="M90 225 L90 277" clip-path="url(#clipPath2)"/>
      <path d="M90 285 L95 273 L90 276 L85 273 Z" stroke="none" clip-path="url(#clipPath2)"/>
      <path fill="none" d="M97.2846 223.1124 L128.8302 279.8944" clip-path="url(#clipPath2)"/>
      <path d="M132.7154 286.8876 L131.2584 273.9695 L128.3446 279.0202 L122.5169 278.826 Z" stroke="none" clip-path="url(#clipPath2)"/>
      <path fill="none" d="M207.6555 216.207 L239.0616 230.4825" clip-path="url(#clipPath2)"/>
      <path d="M246.3445 233.793 L237.4891 224.2755 L238.1512 230.0687 L233.3511 233.3792 Z" stroke="none" clip-path="url(#clipPath2)"/>
      <path fill="none" d="M251.6795 252.4808 L232.7581 280.8629" clip-path="url(#clipPath2)"/>
      <path d="M228.3205 287.5193 L239.1371 280.3082 L233.3128 280.0308 L230.8167 274.7611 Z" stroke="none" clip-path="url(#clipPath2)"/>
      <path fill="none" d="M442.7154 133.1124 L411.1698 189.8944" clip-path="url(#clipPath2)"/>
      <path d="M407.2846 196.8876 L417.4832 188.826 L411.6555 189.0202 L408.7416 183.9695 Z" stroke="none" clip-path="url(#clipPath2)"/>
      <path fill="none" d="M457.7174 132.8624 L492.1666 190.2777" clip-path="url(#clipPath2)"/>
      <path d="M496.2826 197.1376 L494.3961 184.2752 L491.6521 189.4202 L485.8211 189.4202 Z" stroke="none" clip-path="url(#clipPath2)"/>
      <path fill="none" d="M392.7154 223.1124 L361.1698 279.8944" clip-path="url(#clipPath2)"/>
      <path d="M357.2846 286.8876 L367.4832 278.826 L361.6555 279.0202 L358.7416 273.9695 Z" stroke="none" clip-path="url(#clipPath2)"/>
      <path fill="none" d="M400 225 L400 277" clip-path="url(#clipPath2)"/>
      <path d="M400 285 L405 273 L400 276 L395 273 Z" stroke="none" clip-path="url(#clipPath2)"/>
      <path fill="none" d="M407.2846 223.1124 L438.8302 279.8944" clip-path="url(#clipPath2)"/>
      <path d="M442.7154 286.8876 L441.2584 273.9695 L438.3445 279.0202 L432.5168 278.826 Z" stroke="none" clip-path="url(#clipPath2)"/>
      <path fill="none" d="M517.6555 216.207 L549.0616 230.4825" clip-path="url(#clipPath2)"/>
      <path d="M556.3445 233.793 L547.4891 224.2755 L548.1512 230.0687 L543.3511 233.3791 Z" stroke="none" clip-path="url(#clipPath2)"/>
      <path fill="none" d="M561.6795 252.4808 L542.7581 280.8629" clip-path="url(#clipPath2)"/>
      <path d="M538.3205 287.5193 L549.1371 280.3082 L543.3128 280.0308 L540.8167 274.7612 Z" stroke="none" clip-path="url(#clipPath2)"/>
      <path fill="none" d="M617.1376 247.7174 L549.7224 288.1666" clip-path="url(#clipPath2)"/>
      <path d="M542.8624 292.2825 L555.7249 290.3961 L550.5799 287.6521 L550.5799 281.8211 Z" stroke="none" clip-path="url(#clipPath2)"/>
    </g>
    <g stroke-linecap="round" transform="matrix(1,0,0,1,-10,-90)" stroke-dashoffset="2" text-rendering="geometricPrecision" shape-rendering="geometricPrecision" stroke-dasharray="0,4" stroke-miterlimit="1.45">
      <path fill="none" d="M519 210 L567 210" clip-path="url(#clipPath2)"/>
      <path d="M575 210 L563 205 L566 210 L563 215 Z" clip-path="url(#clipPath2)" stroke="none"/>
      <path fill="none" stroke-dasharray="none" d="M602 219 L611.6 226.2" stroke-dashoffset="0" clip-path="url(#clipPath2)" stroke-linecap="butt"/>
      <path stroke-dasharray="none" d="M618 231 L611.4 219.8 L610.8 225.6 L605.4 227.8 Z" stroke-dashoffset="0" clip-path="url(#clipPath2)" stroke-linecap="butt" stroke="none"/>
      <path fill="none" d="M465 120 L487 120" clip-path="url(#clipPath2)"/>
      <path d="M495 120 L483 115 L486 120 L483 125 Z" clip-path="url(#clipPath2)" stroke="none"/>
      <path fill="none" stroke-dasharray="none" d="M519.9655 131.2111 L574.7196 192.8096" stroke-dashoffset="0" clip-path="url(#clipPath2)" stroke-linecap="butt"/>
      <path stroke-dasharray="none" d="M580.0345 198.7888 L575.7992 186.4981 L574.0552 192.0622 L568.3251 193.1418 Z" stroke-dashoffset="0" clip-path="url(#clipPath2)" stroke-linecap="butt" stroke="none"/>
      <path fill="none" stroke-dasharray="none" d="M498.3907 129.4986 L417.801 195.4355" stroke-dashoffset="0" clip-path="url(#clipPath2)" stroke-linecap="butt"/>
      <path stroke-dasharray="none" d="M411.6093 200.5014 L424.063 196.7724 L418.575 194.8023 L417.7307 189.0328 Z" stroke-dashoffset="0" clip-path="url(#clipPath2)" stroke-linecap="butt" stroke="none"/>
    </g>
  </g>
</svg>
