<?xml version="1.0" encoding="UTF-8"?><svg xmlns="http://www.w3.org/2000/svg" xmlns:xlink="http://www.w3.org/1999/xlink" fill-opacity="1" color-rendering="auto" color-interpolation="auto" text-rendering="auto" stroke="black" stroke-linecap="square" width="497" stroke-miterlimit="10" shape-rendering="auto" stroke-opacity="1" fill="black" stroke-dasharray="none" font-weight="normal" stroke-width="1" height="443" font-family="'Dialog'" font-style="normal" stroke-linejoin="miter" font-size="12px" stroke-dashoffset="0" image-rendering="auto">
  <!--Generated by ySVG 2.5-->
  <defs id="genericDefs"/>
  <g>
    <defs id="defs1">
      <clipPath clipPathUnits="userSpaceOnUse" id="clipPath1">
        <path d="M0 0 L497 0 L497 443 L0 443 L0 0 Z"/>
      </clipPath>
      <clipPath clipPathUnits="userSpaceOnUse" id="clipPath2">
        <path d="M358 197 L855 197 L855 640 L358 640 L358 197 Z"/>
      </clipPath>
      <clipPath clipPathUnits="userSpaceOnUse" id="clipPath3">
        <path d="M373 595 L373 623 L489 623 L489 595 Z"/>
      </clipPath>
    </defs>
    <g fill="white" text-rendering="geometricPrecision" shape-rendering="geometricPrecision" transform="translate(-358,-197)" stroke="white">
      <rect x="358" width="497" height="443" y="197" clip-path="url(#clipPath2)" stroke="none"/>
    </g>
    <g fill="rgb(0,204,255)" text-rendering="geometricPrecision" shape-rendering="geometricPrecision" transform="matrix(1,0,0,1,-358,-197)" stroke="rgb(0,204,255)">
      <rect x="577.4" width="105.2" height="110.8" y="212.8" clip-path="url(#clipPath2)" stroke="none"/>
    </g>
    <g text-rendering="geometricPrecision" stroke-miterlimit="1.45" shape-rendering="geometricPrecision" transform="matrix(1,0,0,1,-358,-197)" stroke-linecap="butt">
      <rect fill="none" x="577.4" width="105.2" height="110.8" y="212.8" clip-path="url(#clipPath2)"/>
      <text x="616.6937" xml:space="preserve" y="320.1352" clip-path="url(#clipPath2)" font-family="sans-serif" stroke="none">Component</text>
      <text x="603.1426" xml:space="preserve" y="272.7352" clip-path="url(#clipPath2)" font-family="sans-serif" stroke="none">A</text>
    </g>
    <g fill="rgb(255,153,204)" text-rendering="geometricPrecision" shape-rendering="geometricPrecision" transform="matrix(1,0,0,1,-358,-197)" stroke="rgb(255,153,204)">
      <rect x="441" width="170.8" height="181.2" y="375" clip-path="url(#clipPath2)" stroke="none"/>
    </g>
    <g text-rendering="geometricPrecision" stroke-miterlimit="1.45" shape-rendering="geometricPrecision" transform="matrix(1,0,0,1,-358,-197)" stroke-linecap="butt">
      <rect fill="none" x="441" width="170.8" height="181.2" y="375" clip-path="url(#clipPath2)"/>
      <text x="516.1867" xml:space="preserve" y="553.7352" clip-path="url(#clipPath2)" font-family="sans-serif" stroke="none">Child Component</text>
      <text x="486.7852" xml:space="preserve" y="470.1352" clip-path="url(#clipPath2)" font-family="sans-serif" stroke="none">B</text>
    </g>
    <g fill="rgb(0,204,255)" text-rendering="geometricPrecision" shape-rendering="geometricPrecision" transform="matrix(1,0,0,1,-358,-197)" stroke="rgb(0,204,255)">
      <rect x="653.8" width="105.2" height="94" y="353.6" clip-path="url(#clipPath2)" stroke="none"/>
    </g>
    <g text-rendering="geometricPrecision" stroke-miterlimit="1.45" shape-rendering="geometricPrecision" transform="matrix(1,0,0,1,-358,-197)" stroke-linecap="butt">
      <rect fill="none" x="653.8" width="105.2" height="94" y="353.6" clip-path="url(#clipPath2)"/>
      <text x="653.1934" xml:space="preserve" y="445.7352" clip-path="url(#clipPath2)" font-family="sans-serif" stroke="none">Child Component</text>
      <text x="702.6852" xml:space="preserve" y="405.1352" clip-path="url(#clipPath2)" font-family="sans-serif" stroke="none">C</text>
    </g>
    <g fill="rgb(255,153,204)" text-rendering="geometricPrecision" shape-rendering="geometricPrecision" transform="matrix(1,0,0,1,-358,-197)" stroke="rgb(255,153,204)">
      <rect x="641" width="170.8" height="146" y="477.6" clip-path="url(#clipPath2)" stroke="none"/>
    </g>
    <g text-rendering="geometricPrecision" stroke-miterlimit="1.45" shape-rendering="geometricPrecision" transform="matrix(1,0,0,1,-358,-197)" stroke-linecap="butt">
      <rect fill="none" x="641" width="170.8" height="146" y="477.6" clip-path="url(#clipPath2)"/>
      <text x="647" xml:space="preserve" y="614.5765" clip-path="url(#clipPath2)" font-family="sans-serif" stroke="none">Child Component</text>
      <text x="722.4449" xml:space="preserve" y="555.1351" clip-path="url(#clipPath2)" font-family="sans-serif" stroke="none">D</text>
    </g>
    <g fill="rgb(255,204,0)" text-rendering="geometricPrecision" shape-rendering="geometricPrecision" transform="matrix(1,0,0,1,-358,-197)" stroke="rgb(255,204,0)">
      <circle r="15" clip-path="url(#clipPath2)" cx="630" cy="240" stroke="none"/>
    </g>
    <g text-rendering="geometricPrecision" stroke-miterlimit="1.45" shape-rendering="geometricPrecision" transform="matrix(1,0,0,1,-358,-197)" stroke-linecap="butt">
      <circle fill="none" r="15" clip-path="url(#clipPath2)" cx="630" cy="240"/>
      <text x="618.498" xml:space="preserve" y="244.5352" clip-path="url(#clipPath2)" font-family="sans-serif" stroke="none">html</text>
    </g>
    <g fill="rgb(255,204,0)" text-rendering="geometricPrecision" shape-rendering="geometricPrecision" transform="matrix(1,0,0,1,-358,-197)" stroke="rgb(255,204,0)">
      <circle r="15" clip-path="url(#clipPath2)" cx="630" cy="291.4" stroke="none"/>
    </g>
    <g text-rendering="geometricPrecision" stroke-miterlimit="1.45" shape-rendering="geometricPrecision" transform="matrix(1,0,0,1,-358,-197)" stroke-linecap="butt">
      <circle fill="none" r="15" clip-path="url(#clipPath2)" cx="630" cy="291.4"/>
      <text x="624.6035" xml:space="preserve" y="295.9352" clip-path="url(#clipPath2)" font-family="sans-serif" stroke="none">...</text>
    </g>
    <g fill="rgb(255,204,0)" text-rendering="geometricPrecision" shape-rendering="geometricPrecision" transform="matrix(1,0,0,1,-358,-197)" stroke="rgb(255,204,0)">
      <circle r="15" clip-path="url(#clipPath2)" cx="526.4" cy="411.4" stroke="none"/>
    </g>
    <g text-rendering="geometricPrecision" stroke-miterlimit="1.45" shape-rendering="geometricPrecision" transform="matrix(1,0,0,1,-358,-197)" stroke-linecap="butt">
      <circle fill="none" r="15" clip-path="url(#clipPath2)" cx="526.4" cy="411.4"/>
      <text x="519.0934" xml:space="preserve" y="415.9352" clip-path="url(#clipPath2)" font-family="sans-serif" stroke="none">div</text>
    </g>
    <g fill="rgb(255,204,0)" text-rendering="geometricPrecision" shape-rendering="geometricPrecision" transform="matrix(1,0,0,1,-358,-197)" stroke="rgb(255,204,0)">
      <circle r="15" clip-path="url(#clipPath2)" cx="526.4" cy="471.4" stroke="none"/>
    </g>
    <g text-rendering="geometricPrecision" stroke-miterlimit="1.45" shape-rendering="geometricPrecision" transform="matrix(1,0,0,1,-358,-197)" stroke-linecap="butt">
      <circle fill="none" r="15" clip-path="url(#clipPath2)" cx="526.4" cy="471.4"/>
      <text x="519.0934" xml:space="preserve" y="475.9352" clip-path="url(#clipPath2)" font-family="sans-serif" stroke="none">div</text>
    </g>
    <g fill="rgb(255,204,0)" text-rendering="geometricPrecision" shape-rendering="geometricPrecision" transform="matrix(1,0,0,1,-358,-197)" stroke="rgb(255,204,0)">
      <circle r="15" clip-path="url(#clipPath2)" cx="573.6" cy="523.4" stroke="none"/>
    </g>
    <g text-rendering="geometricPrecision" stroke-miterlimit="1.45" shape-rendering="geometricPrecision" transform="matrix(1,0,0,1,-358,-197)" stroke-linecap="butt">
      <circle fill="none" r="15" clip-path="url(#clipPath2)" cx="573.6" cy="523.4"/>
      <text x="570.3656" xml:space="preserve" y="527.9352" clip-path="url(#clipPath2)" font-family="sans-serif" stroke="none">p</text>
    </g>
    <g fill="rgb(255,204,0)" text-rendering="geometricPrecision" shape-rendering="geometricPrecision" transform="matrix(1,0,0,1,-358,-197)" stroke="rgb(255,204,0)">
      <circle r="15" clip-path="url(#clipPath2)" cx="676.4" cy="381.4" stroke="none"/>
    </g>
    <g text-rendering="geometricPrecision" stroke-miterlimit="1.45" shape-rendering="geometricPrecision" transform="matrix(1,0,0,1,-358,-197)" stroke-linecap="butt">
      <circle fill="none" r="15" clip-path="url(#clipPath2)" cx="676.4" cy="381.4"/>
      <text x="669.0934" xml:space="preserve" y="385.9352" clip-path="url(#clipPath2)" font-family="sans-serif" stroke="none">div</text>
    </g>
    <g fill="rgb(255,204,0)" text-rendering="geometricPrecision" shape-rendering="geometricPrecision" transform="matrix(1,0,0,1,-358,-197)" stroke="rgb(255,204,0)">
      <circle r="15" clip-path="url(#clipPath2)" cx="736.4" cy="518" stroke="none"/>
    </g>
    <g text-rendering="geometricPrecision" stroke-miterlimit="1.45" shape-rendering="geometricPrecision" transform="matrix(1,0,0,1,-358,-197)" stroke-linecap="butt">
      <circle fill="none" r="15" clip-path="url(#clipPath2)" cx="736.4" cy="518"/>
      <text x="729.0934" xml:space="preserve" y="522.5352" clip-path="url(#clipPath2)" font-family="sans-serif" stroke="none">div</text>
    </g>
    <g fill="rgb(255,204,0)" text-rendering="geometricPrecision" shape-rendering="geometricPrecision" transform="matrix(1,0,0,1,-358,-197)" stroke="rgb(255,204,0)">
      <circle r="15" clip-path="url(#clipPath2)" cx="664.8" cy="578" stroke="none"/>
    </g>
    <g text-rendering="geometricPrecision" stroke-miterlimit="1.45" shape-rendering="geometricPrecision" transform="matrix(1,0,0,1,-358,-197)" stroke-linecap="butt">
      <circle fill="none" r="15" clip-path="url(#clipPath2)" cx="664.8" cy="578"/>
      <text x="651.7453" xml:space="preserve" y="582.5352" clip-path="url(#clipPath2)" font-family="sans-serif" stroke="none">input</text>
    </g>
    <g fill="rgb(255,204,0)" text-rendering="geometricPrecision" shape-rendering="geometricPrecision" transform="matrix(1,0,0,1,-358,-197)" stroke="rgb(255,204,0)">
      <circle r="15" clip-path="url(#clipPath2)" cx="784.8" cy="591.4" stroke="none"/>
    </g>
    <g text-rendering="geometricPrecision" stroke-miterlimit="1.45" shape-rendering="geometricPrecision" transform="matrix(1,0,0,1,-358,-197)" stroke-linecap="butt">
      <circle fill="none" r="15" clip-path="url(#clipPath2)" cx="784.8" cy="591.4"/>
      <text x="771.9797" xml:space="preserve" y="595.9352" clip-path="url(#clipPath2)" font-family="sans-serif" stroke="none">span</text>
    </g>
    <g fill="rgb(255,204,0)" text-rendering="geometricPrecision" shape-rendering="geometricPrecision" transform="matrix(1,0,0,1,-358,-197)" stroke="rgb(255,204,0)">
      <circle r="15" clip-path="url(#clipPath2)" cx="476" cy="523.4" stroke="none"/>
    </g>
    <g text-rendering="geometricPrecision" stroke-miterlimit="1.45" shape-rendering="geometricPrecision" transform="matrix(1,0,0,1,-358,-197)" stroke-linecap="butt">
      <circle fill="none" r="15" clip-path="url(#clipPath2)" cx="476" cy="523.4"/>
      <text x="463.1797" xml:space="preserve" y="527.9352" clip-path="url(#clipPath2)" font-family="sans-serif" stroke="none">span</text>
    </g>
    <g fill="rgb(255,204,0)" text-rendering="geometricPrecision" shape-rendering="geometricPrecision" transform="matrix(1,0,0,1,-358,-197)" stroke="rgb(255,204,0)">
      <circle r="15" clip-path="url(#clipPath2)" cx="736.4" cy="426.4" stroke="none"/>
    </g>
    <g text-rendering="geometricPrecision" stroke-miterlimit="1.45" shape-rendering="geometricPrecision" transform="matrix(1,0,0,1,-358,-197)" stroke-linecap="butt">
      <circle fill="none" r="15" clip-path="url(#clipPath2)" cx="736.4" cy="426.4"/>
      <text x="731.0035" xml:space="preserve" y="430.9352" clip-path="url(#clipPath2)" font-family="sans-serif" stroke="none">...</text>
    </g>
    <g fill="rgb(153,204,0)" text-rendering="geometricPrecision" shape-rendering="geometricPrecision" transform="matrix(1,0,0,1,-358,-197)" stroke="rgb(153,204,0)">
      <rect x="451.4" width="74" height="30" y="315" clip-path="url(#clipPath2)" stroke="none"/>
    </g>
    <g text-rendering="geometricPrecision" stroke-miterlimit="1.45" shape-rendering="geometricPrecision" transform="matrix(1,0,0,1,-358,-197)" stroke-linecap="butt">
      <rect fill="none" x="451.4" width="74" height="30" y="315" clip-path="url(#clipPath2)"/>
      <text x="454.4859" xml:space="preserve" y="334.5352" clip-path="url(#clipPath2)" font-family="sans-serif" stroke="none">props.test=2</text>
    </g>
    <g fill="rgb(153,204,0)" text-rendering="geometricPrecision" shape-rendering="geometricPrecision" transform="matrix(1,0,0,1,-358,-197)" stroke="rgb(153,204,0)">
      <rect x="519.4" width="74" height="30" y="594.8667" clip-path="url(#clipPath2)" stroke="none"/>
    </g>
    <g text-rendering="geometricPrecision" stroke-miterlimit="1.45" shape-rendering="geometricPrecision" transform="matrix(1,0,0,1,-358,-197)" stroke-linecap="butt">
      <rect fill="none" x="519.4" width="74" height="30" y="594.8667" clip-path="url(#clipPath2)"/>
      <text x="522.486" xml:space="preserve" y="614.4018" clip-path="url(#clipPath2)" font-family="sans-serif" stroke="none">props.test=2</text>
    </g>
    <g fill="rgb(255,153,204)" text-rendering="geometricPrecision" shape-rendering="geometricPrecision" transform="matrix(1,0,0,1,-358,-197)" stroke="rgb(255,153,204)">
      <circle r="15" clip-path="url(#clipPath2)" cx="736.4" cy="240" stroke="none"/>
    </g>
    <g text-rendering="geometricPrecision" stroke-miterlimit="1.45" shape-rendering="geometricPrecision" transform="matrix(1,0,0,1,-358,-197)" stroke-linecap="butt">
      <circle fill="none" r="15" clip-path="url(#clipPath2)" cx="736.4" cy="240"/>
      <text x="722.9821" xml:space="preserve" y="244.5352" clip-path="url(#clipPath2)" font-family="sans-serif" stroke="none">store</text>
    </g>
    <g transform="matrix(1,0,0,1,-358,-197)" fill-opacity="0" fill="rgb(255,255,255)" text-rendering="geometricPrecision" shape-rendering="geometricPrecision" stroke="rgb(255,255,255)" stroke-opacity="0">
      <rect x="374" width="114" height="26" y="596" clip-path="url(#clipPath2)" stroke="none"/>
      <rect x="373" width="1" height="28" y="595" clip-path="url(#clipPath2)" stroke="none"/>
      <rect x="374" width="114" height="1" y="595" clip-path="url(#clipPath2)" stroke="none"/>
      <rect x="374" y="622" clip-path="url(#clipPath2)" fill="rgb(178,178,178)" width="115" height="1" stroke="none"/>
      <rect x="488" y="595" clip-path="url(#clipPath2)" fill="rgb(178,178,178)" width="1" height="27" stroke="none"/>
    </g>
    <g font-size="13px" stroke-linecap="butt" transform="matrix(1,0,0,1,-358,-197)" text-rendering="geometricPrecision" font-family="sans-serif" shape-rendering="geometricPrecision" font-weight="bold" stroke-miterlimit="1.45">
      <text x="404.8814" xml:space="preserve" y="613.9682" clip-path="url(#clipPath3)" stroke="none">#kangkk</text>
    </g>
    <g stroke-linecap="butt" transform="matrix(1,0,0,1,-358,-197)" fill="rgb(0,204,255)" text-rendering="geometricPrecision" shape-rendering="geometricPrecision" stroke="rgb(0,204,255)" stroke-miterlimit="1.45">
      <path fill="none" d="M600.9248 323.6 L577.6666 367.9163" clip-path="url(#clipPath2)"/>
      <path d="M573.9489 375 L583.9528 366.698 L578.1313 367.0308 L575.0981 362.0509 Z" clip-path="url(#clipPath2)" stroke="none"/>
      <path fill="none" d="M577.4 267.8506 L389.6667 266.6033 L389.6667 459.8667 L433.007 461.684" clip-path="url(#clipPath2)" stroke="rgb(255,153,204)"/>
      <path fill="rgb(255,153,204)" d="M441 462.0191 L429.22 456.5208 L432.0079 461.6421 L428.8011 466.512 Z" clip-path="url(#clipPath2)" stroke="none"/>
      <text x="444.0333" y="271.6591" clip-path="url(#clipPath2)" fill="black" font-family="sans-serif" stroke="none" xml:space="preserve">数据流动</text>
      <path fill="none" d="M661.968 323.6 L675.2808 346.6709" clip-path="url(#clipPath2)"/>
      <path d="M679.2792 353.6 L677.6122 340.7073 L674.7809 345.8047 L668.9509 345.7053 Z" clip-path="url(#clipPath2)" stroke="none"/>
      <path fill="none" d="M682.6 267.1007 L706.4 266.6033 L706.4 345.6" clip-path="url(#clipPath2)" stroke="rgb(255,153,204)"/>
      <path fill="rgb(255,153,204)" d="M706.4 353.6 L711.4 341.6 L706.4 344.6 L701.4 341.6 Z" clip-path="url(#clipPath2)" stroke="none"/>
      <text x="712.4" y="307.3575" clip-path="url(#clipPath2)" fill="black" font-family="sans-serif" stroke="none" xml:space="preserve">数据流动</text>
      <path fill="none" d="M712.6667 447.6 L715.6094 469.6702" clip-path="url(#clipPath2)"/>
      <path d="M716.6667 477.6 L720.0369 465.0444 L715.4772 468.6789 L710.1246 466.3661 Z" clip-path="url(#clipPath2)" stroke="none"/>
      <path fill="none" d="M759 400.3105 L839.6667 399.8667 L839.6667 549.8666 L819.7998 549.9953" clip-path="url(#clipPath2)" stroke="rgb(255,153,204)"/>
      <path fill="rgb(255,153,204)" d="M811.8 550.0471 L823.8321 554.9693 L820.7998 549.9888 L823.7674 544.9695 Z" clip-path="url(#clipPath2)" stroke="none"/>
      <text x="785.6667" y="434.5674" clip-path="url(#clipPath2)" fill="black" font-family="sans-serif" stroke="none" xml:space="preserve">数据流动</text>
      <path fill="none" d="M630 255 L630 268.4" clip-path="url(#clipPath2)" stroke="rgb(255,153,0)"/>
      <path fill="rgb(255,153,0)" d="M630 276.4 L635 264.4 L630 267.4 L625 264.4 Z" clip-path="url(#clipPath2)" stroke="none"/>
      <path fill="none" d="M620.1977 302.7541 L541.4302 393.9904" clip-path="url(#clipPath2)" stroke="rgb(255,153,0)"/>
      <path fill="rgb(255,153,0)" d="M536.2023 400.046 L547.8289 394.2301 L542.0837 393.2335 L540.2595 387.6953 Z" clip-path="url(#clipPath2)" stroke="none"/>
      <path fill="none" d="M526.4 426.4 L526.4 448.4" clip-path="url(#clipPath2)" stroke="rgb(255,153,0)"/>
      <path fill="rgb(255,153,0)" d="M526.4 456.4 L531.4 444.4 L526.4 447.4 L521.4 444.4 Z" clip-path="url(#clipPath2)" stroke="none"/>
      <path fill="none" d="M536.4816 482.5068 L558.1416 506.3695" clip-path="url(#clipPath2)" stroke="rgb(255,153,0)"/>
      <path fill="rgb(255,153,0)" d="M563.5184 512.2932 L559.1555 500.0471 L557.4695 505.6291 L551.7509 506.7682 Z" clip-path="url(#clipPath2)" stroke="none"/>
      <path fill="none" d="M636.8736 304.7324 L665.8605 360.9569" clip-path="url(#clipPath2)" stroke="rgb(255,153,0)"/>
      <path fill="rgb(255,153,0)" d="M669.5264 368.0676 L668.4717 355.1104 L665.4022 360.0681 L659.5834 359.6928 Z" clip-path="url(#clipPath2)" stroke="none"/>
      <path fill="none" d="M724.9031 527.6343 L682.4286 563.2274" clip-path="url(#clipPath2)" stroke="rgb(255,153,0)"/>
      <path fill="rgb(255,153,0)" d="M676.2969 568.3657 L688.7059 564.4905 L683.1951 562.5851 L682.2831 556.8259 Z" clip-path="url(#clipPath2)" stroke="none"/>
      <path fill="none" d="M744.6574 530.5226 L772.1387 572.1987" clip-path="url(#clipPath2)" stroke="rgb(255,153,0)"/>
      <path fill="rgb(255,153,0)" d="M776.5426 578.8774 L774.1109 566.1068 L771.5882 571.3638 L765.7625 571.6118 Z" clip-path="url(#clipPath2)" stroke="none"/>
      <path fill="none" d="M515.9604 482.171 L492.0074 506.8844" clip-path="url(#clipPath2)" stroke="rgb(255,153,0)"/>
      <path fill="rgb(255,153,0)" d="M486.4396 512.629 L498.3816 507.492 L492.7034 506.1664 L491.201 500.5323 Z" clip-path="url(#clipPath2)" stroke="none"/>
      <path fill="none" d="M688.4 390.4 L718 412.6" clip-path="url(#clipPath2)" stroke="rgb(255,153,0)"/>
      <path fill="rgb(255,153,0)" d="M724.4 417.4 L717.8 406.2 L717.2 412 L711.8 414.2 Z" clip-path="url(#clipPath2)" stroke="none"/>
      <path fill="none" d="M736.4 441.4 L736.4 495" clip-path="url(#clipPath2)" stroke="rgb(255,153,0)"/>
      <path fill="rgb(255,153,0)" d="M736.4 503 L741.4 491 L736.4 494 L731.4 491 Z" clip-path="url(#clipPath2)" stroke="none"/>
    </g>
    <g text-rendering="geometricPrecision" stroke-miterlimit="1.45" shape-rendering="geometricPrecision" transform="matrix(1,0,0,1,-358,-197)" stroke-linecap="butt">
      <path fill="none" d="M492.6035 345 L490.633 361.1301 L490.633 361.1301 L494.4377 357.1041 L499.5662 375.4045 L502.455 374.5955 L497.3264 356.2946 L497.3264 356.2946 L502.6693 357.7571 L492.6035 345 Z" clip-path="url(#clipPath2)"/>
    </g>
    <g text-rendering="geometricPrecision" stroke-miterlimit="1.45" shape-rendering="geometricPrecision" transform="matrix(1,0,0,1,-358,-197)" stroke-linecap="butt">
      <path fill="none" d="M640.5055 578.9567 L604.3789 591.5513 L604.3789 591.5513 L605.5063 586.1278 L593.4 596.9675 L609.6213 597.9311 L605.3666 594.3841 L641.4945 581.7889 L640.5055 578.9567 Z" clip-path="url(#clipPath2)"/>
    </g>
    <g stroke-linecap="butt" transform="matrix(1,0,0,1,-358,-197)" fill="rgb(255,153,204)" text-rendering="geometricPrecision" shape-rendering="geometricPrecision" stroke="rgb(255,153,204)" stroke-miterlimit="1.45">
      <path fill="none" d="M721.9006 243.8429 L690.333 252.2095" clip-path="url(#clipPath2)"/>
      <path d="M682.6 254.259 L695.4805 256.0179 L691.2996 251.9533 L692.9185 246.3516 Z" clip-path="url(#clipPath2)" stroke="none"/>
    </g>
  </g>
</svg>
