<?xml version="1.0" encoding="UTF-8"?><svg xmlns="http://www.w3.org/2000/svg" xmlns:xlink="http://www.w3.org/1999/xlink" fill-opacity="1" color-rendering="auto" color-interpolation="auto" text-rendering="auto" stroke="black" stroke-linecap="square" width="465" stroke-miterlimit="10" shape-rendering="auto" stroke-opacity="1" fill="black" stroke-dasharray="none" font-weight="normal" stroke-width="1" height="443" font-family="'Dialog'" font-style="normal" stroke-linejoin="miter" font-size="12px" stroke-dashoffset="0" image-rendering="auto">
  <!--Generated by ySVG 2.5-->
  <defs id="genericDefs"/>
  <g>
    <defs id="defs1">
      <clipPath clipPathUnits="userSpaceOnUse" id="clipPath1">
        <path d="M0 0 L465 0 L465 443 L0 443 L0 0 Z"/>
      </clipPath>
      <clipPath clipPathUnits="userSpaceOnUse" id="clipPath2">
        <path d="M586 127 L1051 127 L1051 570 L586 570 L586 127 Z"/>
      </clipPath>
      <clipPath clipPathUnits="userSpaceOnUse" id="clipPath3">
        <path d="M601 526 L601 554 L717 554 L717 526 Z"/>
      </clipPath>
    </defs>
    <g fill="rgb(0,204,255)" text-rendering="geometricPrecision" shape-rendering="geometricPrecision" transform="matrix(1,0,0,1,-586,-127)" stroke="rgb(0,204,255)">
      <rect x="801" width="105.2" height="110.8" y="142.9333" clip-path="url(#clipPath2)" stroke="none"/>
    </g>
    <g text-rendering="geometricPrecision" stroke-miterlimit="1.45" shape-rendering="geometricPrecision" transform="matrix(1,0,0,1,-586,-127)" stroke-linecap="butt">
      <rect fill="none" x="801" width="105.2" height="110.8" y="142.9333" clip-path="url(#clipPath2)"/>
      <text x="840.2938" xml:space="preserve" y="250.2685" clip-path="url(#clipPath2)" font-family="sans-serif" stroke="none">Component</text>
      <text x="834.1426" xml:space="preserve" y="202.8685" clip-path="url(#clipPath2)" font-family="sans-serif" stroke="none">A</text>
    </g>
    <g fill="rgb(0,204,255)" text-rendering="geometricPrecision" shape-rendering="geometricPrecision" transform="matrix(1,0,0,1,-586,-127)" stroke="rgb(0,204,255)">
      <rect x="664.6" width="170.8" height="181.2" y="305.1333" clip-path="url(#clipPath2)" stroke="none"/>
    </g>
    <g text-rendering="geometricPrecision" stroke-miterlimit="1.45" shape-rendering="geometricPrecision" transform="matrix(1,0,0,1,-586,-127)" stroke-linecap="butt">
      <rect fill="none" x="664.6" width="170.8" height="181.2" y="305.1333" clip-path="url(#clipPath2)"/>
      <text x="739.7867" xml:space="preserve" y="483.8685" clip-path="url(#clipPath2)" font-family="sans-serif" stroke="none">Child Component</text>
      <text x="716.7852" xml:space="preserve" y="391.5352" clip-path="url(#clipPath2)" font-family="sans-serif" stroke="none">B</text>
    </g>
    <g fill="rgb(0,204,255)" text-rendering="geometricPrecision" shape-rendering="geometricPrecision" transform="matrix(1,0,0,1,-586,-127)" stroke="rgb(0,204,255)">
      <rect x="877.4" width="105.2" height="94" y="283.7333" clip-path="url(#clipPath2)" stroke="none"/>
    </g>
    <g text-rendering="geometricPrecision" stroke-miterlimit="1.45" shape-rendering="geometricPrecision" transform="matrix(1,0,0,1,-586,-127)" stroke-linecap="butt">
      <rect fill="none" x="877.4" width="105.2" height="94" y="283.7333" clip-path="url(#clipPath2)"/>
      <text x="876.7933" xml:space="preserve" y="375.8685" clip-path="url(#clipPath2)" font-family="sans-serif" stroke="none">Child Component</text>
      <text x="926.2852" xml:space="preserve" y="335.2685" clip-path="url(#clipPath2)" font-family="sans-serif" stroke="none">C</text>
    </g>
    <g fill="rgb(0,204,255)" text-rendering="geometricPrecision" shape-rendering="geometricPrecision" transform="matrix(1,0,0,1,-586,-127)" stroke="rgb(0,204,255)">
      <rect x="864.6" width="170.8" height="146" y="407.7333" clip-path="url(#clipPath2)" stroke="none"/>
    </g>
    <g text-rendering="geometricPrecision" stroke-miterlimit="1.45" shape-rendering="geometricPrecision" transform="matrix(1,0,0,1,-586,-127)" stroke-linecap="butt">
      <rect fill="none" x="864.6" width="170.8" height="146" y="407.7333" clip-path="url(#clipPath2)"/>
      <text x="870.6" xml:space="preserve" y="544.7099" clip-path="url(#clipPath2)" font-family="sans-serif" stroke="none">Child Component</text>
      <text x="946.0449" xml:space="preserve" y="485.2685" clip-path="url(#clipPath2)" font-family="sans-serif" stroke="none">D</text>
    </g>
    <g fill="rgb(255,204,0)" text-rendering="geometricPrecision" shape-rendering="geometricPrecision" transform="matrix(1,0,0,1,-586,-127)" stroke="rgb(255,204,0)">
      <circle r="15" clip-path="url(#clipPath2)" cx="853.6" cy="170.1333" stroke="none"/>
    </g>
    <g text-rendering="geometricPrecision" stroke-miterlimit="1.45" shape-rendering="geometricPrecision" transform="matrix(1,0,0,1,-586,-127)" stroke-linecap="butt">
      <circle fill="none" r="15" clip-path="url(#clipPath2)" cx="853.6" cy="170.1333"/>
      <text x="842.098" xml:space="preserve" y="174.6685" clip-path="url(#clipPath2)" font-family="sans-serif" stroke="none">html</text>
    </g>
    <g fill="rgb(255,204,0)" text-rendering="geometricPrecision" shape-rendering="geometricPrecision" transform="matrix(1,0,0,1,-586,-127)" stroke="rgb(255,204,0)">
      <circle r="15" clip-path="url(#clipPath2)" cx="853.6" cy="221.5333" stroke="none"/>
    </g>
    <g text-rendering="geometricPrecision" stroke-miterlimit="1.45" shape-rendering="geometricPrecision" transform="matrix(1,0,0,1,-586,-127)" stroke-linecap="butt">
      <circle fill="none" r="15" clip-path="url(#clipPath2)" cx="853.6" cy="221.5333"/>
      <text x="848.2035" xml:space="preserve" y="226.0685" clip-path="url(#clipPath2)" font-family="sans-serif" stroke="none">...</text>
    </g>
    <g fill="rgb(255,204,0)" text-rendering="geometricPrecision" shape-rendering="geometricPrecision" transform="matrix(1,0,0,1,-586,-127)" stroke="rgb(255,204,0)">
      <circle r="15" clip-path="url(#clipPath2)" cx="750" cy="341.5333" stroke="none"/>
    </g>
    <g text-rendering="geometricPrecision" stroke-miterlimit="1.45" shape-rendering="geometricPrecision" transform="matrix(1,0,0,1,-586,-127)" stroke-linecap="butt">
      <circle fill="none" r="15" clip-path="url(#clipPath2)" cx="750" cy="341.5333"/>
      <text x="742.6934" xml:space="preserve" y="346.0685" clip-path="url(#clipPath2)" font-family="sans-serif" stroke="none">div</text>
    </g>
    <g fill="rgb(255,204,0)" text-rendering="geometricPrecision" shape-rendering="geometricPrecision" transform="matrix(1,0,0,1,-586,-127)" stroke="rgb(255,204,0)">
      <circle r="15" clip-path="url(#clipPath2)" cx="750" cy="401.5333" stroke="none"/>
    </g>
    <g text-rendering="geometricPrecision" stroke-miterlimit="1.45" shape-rendering="geometricPrecision" transform="matrix(1,0,0,1,-586,-127)" stroke-linecap="butt">
      <circle fill="none" r="15" clip-path="url(#clipPath2)" cx="750" cy="401.5333"/>
      <text x="742.6934" xml:space="preserve" y="406.0685" clip-path="url(#clipPath2)" font-family="sans-serif" stroke="none">div</text>
    </g>
    <g fill="rgb(255,204,0)" text-rendering="geometricPrecision" shape-rendering="geometricPrecision" transform="matrix(1,0,0,1,-586,-127)" stroke="rgb(255,204,0)">
      <circle r="15" clip-path="url(#clipPath2)" cx="797.2" cy="453.5333" stroke="none"/>
    </g>
    <g text-rendering="geometricPrecision" stroke-miterlimit="1.45" shape-rendering="geometricPrecision" transform="matrix(1,0,0,1,-586,-127)" stroke-linecap="butt">
      <circle fill="none" r="15" clip-path="url(#clipPath2)" cx="797.2" cy="453.5333"/>
      <text x="793.9656" xml:space="preserve" y="458.0685" clip-path="url(#clipPath2)" font-family="sans-serif" stroke="none">p</text>
    </g>
    <g fill="rgb(255,204,0)" text-rendering="geometricPrecision" shape-rendering="geometricPrecision" transform="matrix(1,0,0,1,-586,-127)" stroke="rgb(255,204,0)">
      <circle r="15" clip-path="url(#clipPath2)" cx="900" cy="311.5333" stroke="none"/>
    </g>
    <g text-rendering="geometricPrecision" stroke-miterlimit="1.45" shape-rendering="geometricPrecision" transform="matrix(1,0,0,1,-586,-127)" stroke-linecap="butt">
      <circle fill="none" r="15" clip-path="url(#clipPath2)" cx="900" cy="311.5333"/>
      <text x="892.6934" xml:space="preserve" y="316.0685" clip-path="url(#clipPath2)" font-family="sans-serif" stroke="none">div</text>
    </g>
    <g fill="rgb(255,204,0)" text-rendering="geometricPrecision" shape-rendering="geometricPrecision" transform="matrix(1,0,0,1,-586,-127)" stroke="rgb(255,204,0)">
      <circle r="15" clip-path="url(#clipPath2)" cx="960" cy="448.1333" stroke="none"/>
    </g>
    <g text-rendering="geometricPrecision" stroke-miterlimit="1.45" shape-rendering="geometricPrecision" transform="matrix(1,0,0,1,-586,-127)" stroke-linecap="butt">
      <circle fill="none" r="15" clip-path="url(#clipPath2)" cx="960" cy="448.1333"/>
      <text x="952.6934" xml:space="preserve" y="452.6685" clip-path="url(#clipPath2)" font-family="sans-serif" stroke="none">div</text>
    </g>
    <g fill="rgb(255,204,0)" text-rendering="geometricPrecision" shape-rendering="geometricPrecision" transform="matrix(1,0,0,1,-586,-127)" stroke="rgb(255,204,0)">
      <circle r="15" clip-path="url(#clipPath2)" cx="888.4" cy="508.1333" stroke="none"/>
    </g>
    <g text-rendering="geometricPrecision" stroke-miterlimit="1.45" shape-rendering="geometricPrecision" transform="matrix(1,0,0,1,-586,-127)" stroke-linecap="butt">
      <circle fill="none" r="15" clip-path="url(#clipPath2)" cx="888.4" cy="508.1333"/>
      <text x="875.3453" xml:space="preserve" y="512.6685" clip-path="url(#clipPath2)" font-family="sans-serif" stroke="none">input</text>
    </g>
    <g fill="rgb(255,204,0)" text-rendering="geometricPrecision" shape-rendering="geometricPrecision" transform="matrix(1,0,0,1,-586,-127)" stroke="rgb(255,204,0)">
      <circle r="15" clip-path="url(#clipPath2)" cx="1008.4" cy="521.5333" stroke="none"/>
    </g>
    <g text-rendering="geometricPrecision" stroke-miterlimit="1.45" shape-rendering="geometricPrecision" transform="matrix(1,0,0,1,-586,-127)" stroke-linecap="butt">
      <circle fill="none" r="15" clip-path="url(#clipPath2)" cx="1008.4" cy="521.5333"/>
      <text x="995.5797" xml:space="preserve" y="526.0685" clip-path="url(#clipPath2)" font-family="sans-serif" stroke="none">span</text>
    </g>
    <g fill="rgb(255,204,0)" text-rendering="geometricPrecision" shape-rendering="geometricPrecision" transform="matrix(1,0,0,1,-586,-127)" stroke="rgb(255,204,0)">
      <circle r="15" clip-path="url(#clipPath2)" cx="699.6" cy="453.5333" stroke="none"/>
    </g>
    <g text-rendering="geometricPrecision" stroke-miterlimit="1.45" shape-rendering="geometricPrecision" transform="matrix(1,0,0,1,-586,-127)" stroke-linecap="butt">
      <circle fill="none" r="15" clip-path="url(#clipPath2)" cx="699.6" cy="453.5333"/>
      <text x="686.7797" xml:space="preserve" y="458.0685" clip-path="url(#clipPath2)" font-family="sans-serif" stroke="none">span</text>
    </g>
    <g fill="rgb(255,204,0)" text-rendering="geometricPrecision" shape-rendering="geometricPrecision" transform="matrix(1,0,0,1,-586,-127)" stroke="rgb(255,204,0)">
      <circle r="15" clip-path="url(#clipPath2)" cx="960" cy="356.5333" stroke="none"/>
    </g>
    <g text-rendering="geometricPrecision" stroke-miterlimit="1.45" shape-rendering="geometricPrecision" transform="matrix(1,0,0,1,-586,-127)" stroke-linecap="butt">
      <circle fill="none" r="15" clip-path="url(#clipPath2)" cx="960" cy="356.5333"/>
      <text x="954.6035" xml:space="preserve" y="361.0685" clip-path="url(#clipPath2)" font-family="sans-serif" stroke="none">...</text>
    </g>
    <g fill="rgb(153,204,0)" text-rendering="geometricPrecision" shape-rendering="geometricPrecision" transform="matrix(1,0,0,1,-586,-127)" stroke="rgb(153,204,0)">
      <rect x="675" width="74" height="30" y="245.1333" clip-path="url(#clipPath2)" stroke="none"/>
    </g>
    <g text-rendering="geometricPrecision" stroke-miterlimit="1.45" shape-rendering="geometricPrecision" transform="matrix(1,0,0,1,-586,-127)" stroke-linecap="butt">
      <rect fill="none" x="675" width="74" height="30" y="245.1333" clip-path="url(#clipPath2)"/>
      <text x="678.0859" xml:space="preserve" y="264.6685" clip-path="url(#clipPath2)" font-family="sans-serif" stroke="none">props.test=1</text>
    </g>
    <g fill="rgb(153,204,0)" text-rendering="geometricPrecision" shape-rendering="geometricPrecision" transform="matrix(1,0,0,1,-586,-127)" stroke="rgb(153,204,0)">
      <rect x="743" width="74" height="30" y="525" clip-path="url(#clipPath2)" stroke="none"/>
    </g>
    <g text-rendering="geometricPrecision" stroke-miterlimit="1.45" shape-rendering="geometricPrecision" transform="matrix(1,0,0,1,-586,-127)" stroke-linecap="butt">
      <rect fill="none" x="743" width="74" height="30" y="525" clip-path="url(#clipPath2)"/>
      <text x="746.0859" xml:space="preserve" y="544.5352" clip-path="url(#clipPath2)" font-family="sans-serif" stroke="none">props.test=1</text>
    </g>
    <g transform="matrix(1,0,0,1,-586,-127)" fill-opacity="0" fill="rgb(255,255,255)" text-rendering="geometricPrecision" shape-rendering="geometricPrecision" stroke="rgb(255,255,255)" stroke-opacity="0">
      <rect x="602" width="114" height="26" y="527" clip-path="url(#clipPath2)" stroke="none"/>
      <rect x="601" width="1" height="28" y="526" clip-path="url(#clipPath2)" stroke="none"/>
      <rect x="602" width="114" height="1" y="526" clip-path="url(#clipPath2)" stroke="none"/>
      <rect x="602" y="553" clip-path="url(#clipPath2)" fill="rgb(178,178,178)" width="115" height="1" stroke="none"/>
      <rect x="716" y="526" clip-path="url(#clipPath2)" fill="rgb(178,178,178)" width="1" height="27" stroke="none"/>
    </g>
    <g font-size="13px" stroke-linecap="butt" transform="matrix(1,0,0,1,-586,-127)" text-rendering="geometricPrecision" font-family="sans-serif" shape-rendering="geometricPrecision" font-weight="bold" stroke-miterlimit="1.45">
      <text x="626.021" xml:space="preserve" y="544.1016" clip-path="url(#clipPath3)" stroke="none">@kangcafe</text>
    </g>
    <g stroke-linecap="butt" transform="matrix(1,0,0,1,-586,-127)" fill="rgb(0,204,255)" text-rendering="geometricPrecision" shape-rendering="geometricPrecision" stroke="rgb(0,204,255)" stroke-miterlimit="1.45">
      <path fill="none" d="M824.5248 253.7333 L801.2666 298.0496" clip-path="url(#clipPath2)"/>
      <path d="M797.549 305.1333 L807.5527 296.8313 L801.7313 297.1642 L798.6981 292.1842 Z" clip-path="url(#clipPath2)" stroke="none"/>
      <path fill="none" d="M885.568 253.7333 L898.8808 276.8042" clip-path="url(#clipPath2)"/>
      <path d="M902.8792 283.7333 L901.2123 270.8406 L898.381 275.938 L892.5509 275.8386 Z" clip-path="url(#clipPath2)" stroke="none"/>
      <path fill="none" d="M936.2667 377.7333 L939.2094 399.8035" clip-path="url(#clipPath2)"/>
      <path d="M940.2667 407.7333 L943.6368 395.1778 L939.0772 398.8123 L933.7245 396.4994 Z" clip-path="url(#clipPath2)" stroke="none"/>
      <path fill="none" d="M853.6 185.1333 L853.6 198.5333" clip-path="url(#clipPath2)" stroke="rgb(255,153,0)"/>
      <path fill="rgb(255,153,0)" d="M853.6 206.5333 L858.6 194.5333 L853.6 197.5333 L848.6 194.5333 Z" clip-path="url(#clipPath2)" stroke="none"/>
      <path fill="none" d="M843.7977 232.8874 L765.0302 324.1238" clip-path="url(#clipPath2)" stroke="rgb(255,153,0)"/>
      <path fill="rgb(255,153,0)" d="M759.8023 330.1793 L771.4288 324.3635 L765.6837 323.3669 L763.8595 317.8286 Z" clip-path="url(#clipPath2)" stroke="none"/>
      <path fill="none" d="M750 356.5333 L750 378.5333" clip-path="url(#clipPath2)" stroke="rgb(255,153,0)"/>
      <path fill="rgb(255,153,0)" d="M750 386.5333 L755 374.5333 L750 377.5333 L745 374.5333 Z" clip-path="url(#clipPath2)" stroke="none"/>
      <path fill="none" d="M760.0816 412.6402 L781.7416 436.5029" clip-path="url(#clipPath2)" stroke="rgb(255,153,0)"/>
      <path fill="rgb(255,153,0)" d="M787.1184 442.4265 L782.7554 430.1805 L781.0695 435.7624 L775.3509 436.9016 Z" clip-path="url(#clipPath2)" stroke="none"/>
      <path fill="none" d="M860.4736 234.8658 L889.4604 291.0903" clip-path="url(#clipPath2)" stroke="rgb(255,153,0)"/>
      <path fill="rgb(255,153,0)" d="M893.1264 298.2009 L892.0716 285.2438 L889.0022 290.2014 L883.1833 289.8262 Z" clip-path="url(#clipPath2)" stroke="none"/>
      <path fill="none" d="M948.5031 457.7676 L906.0287 493.3607" clip-path="url(#clipPath2)" stroke="rgb(255,153,0)"/>
      <path fill="rgb(255,153,0)" d="M899.897 498.499 L912.306 494.6239 L906.7952 492.7184 L905.8831 486.9593 Z" clip-path="url(#clipPath2)" stroke="none"/>
      <path fill="none" d="M968.2574 460.6559 L995.7386 502.332" clip-path="url(#clipPath2)" stroke="rgb(255,153,0)"/>
      <path fill="rgb(255,153,0)" d="M1000.1426 509.0107 L997.7109 496.2402 L995.1882 501.4972 L989.3625 501.7451 Z" clip-path="url(#clipPath2)" stroke="none"/>
      <path fill="none" d="M739.5604 412.3044 L715.6074 437.0178" clip-path="url(#clipPath2)" stroke="rgb(255,153,0)"/>
      <path fill="rgb(255,153,0)" d="M710.0396 442.7624 L721.9816 437.6254 L716.3033 436.2997 L714.8009 430.6657 Z" clip-path="url(#clipPath2)" stroke="none"/>
      <path fill="none" d="M912 320.5333 L941.6 342.7333" clip-path="url(#clipPath2)" stroke="rgb(255,153,0)"/>
      <path fill="rgb(255,153,0)" d="M948 347.5333 L941.4 336.3333 L940.8 342.1334 L935.4 344.3334 Z" clip-path="url(#clipPath2)" stroke="none"/>
      <path fill="none" d="M960 371.5333 L960 425.1333" clip-path="url(#clipPath2)" stroke="rgb(255,153,0)"/>
      <path fill="rgb(255,153,0)" d="M960 433.1333 L965 421.1333 L960 424.1333 L955 421.1333 Z" clip-path="url(#clipPath2)" stroke="none"/>
    </g>
    <g text-rendering="geometricPrecision" stroke-miterlimit="1.45" shape-rendering="geometricPrecision" transform="matrix(1,0,0,1,-586,-127)" stroke-linecap="butt">
      <path fill="none" d="M716.2036 275.1333 L714.2329 291.2634 L718.0377 287.2374 L723.1661 305.5378 L726.0551 304.7288 L720.9265 286.4279 L720.9265 286.4279 L726.2693 287.8904 L716.2036 275.1333 Z" clip-path="url(#clipPath2)"/>
    </g>
    <g text-rendering="geometricPrecision" stroke-miterlimit="1.45" shape-rendering="geometricPrecision" transform="matrix(1,0,0,1,-586,-127)" stroke-linecap="butt">
      <path fill="none" d="M864.1055 509.09 L827.979 521.6847 L827.979 521.6847 L829.1065 516.2612 L817 527.1008 L833.2214 528.0645 L828.9666 524.5175 L828.9666 524.5175 L865.0945 511.9222 L864.1055 509.09 Z" clip-path="url(#clipPath2)"/>
    </g>
  </g>
</svg>
